<svg width="33" height="25" viewBox="0 0 33 25" fill="none" xmlns="http://www.w3.org/2000/svg">
<rect x="1.31323" y="0.686523" width="31" height="23" rx="3.5" fill="#F2F4F7"/>
<rect x="1.31323" y="0.686523" width="31" height="23" rx="3.5" stroke="#F2F4F7"/>
<path fill-rule="evenodd" clip-rule="evenodd" d="M16.8133 17.2858C15.6292 18.2838 14.0933 18.8863 12.415 18.8863C8.6701 18.8863 5.63428 15.8866 5.63428 12.1863C5.63428 8.48602 8.6701 5.48633 12.415 5.48633C14.0933 5.48633 15.6292 6.08883 16.8133 7.08687C17.9973 6.08883 19.5332 5.48633 21.2115 5.48633C24.9564 5.48633 27.9922 8.48602 27.9922 12.1863C27.9922 15.8866 24.9564 18.8863 21.2115 18.8863C19.5332 18.8863 17.9973 18.2838 16.8133 17.2858Z" fill="#ED0006"/>
<path fill-rule="evenodd" clip-rule="evenodd" d="M16.8132 17.2858C18.2712 16.0569 19.1956 14.2283 19.1956 12.1863C19.1956 10.1444 18.2712 8.31577 16.8132 7.08687C17.9973 6.08883 19.5332 5.48633 21.2115 5.48633C24.9564 5.48633 27.9922 8.48602 27.9922 12.1863C27.9922 15.8866 24.9564 18.8863 21.2115 18.8863C19.5332 18.8863 17.9973 18.2838 16.8132 17.2858Z" fill="#F9A000"/>
<path fill-rule="evenodd" clip-rule="evenodd" d="M16.8133 17.2858C18.2712 16.0569 19.1957 14.2283 19.1957 12.1864C19.1957 10.1444 18.2712 8.31582 16.8133 7.08691C15.3554 8.31582 14.4309 10.1444 14.4309 12.1864C14.4309 14.2283 15.3554 16.0569 16.8133 17.2858Z" fill="#FF5E00"/>
</svg>
