<svg width="28" height="24" viewBox="0 0 28 24" fill="none" xmlns="http://www.w3.org/2000/svg">
<path fill-rule="evenodd" clip-rule="evenodd" d="M6.37925 0.75C3.40758 0.75 0.979248 3.17833 0.979248 6.15C0.979248 7.74121 1.67616 9.17636 2.77925 10.1666V20.55C2.77927 20.7887 2.8741 21.0176 3.04288 21.1864C3.21166 21.3551 3.44056 21.45 3.67925 21.45H5.63569C6.00982 22.4944 7.01343 23.25 8.17925 23.25C9.34507 23.25 10.3487 22.4944 10.7228 21.45H17.1792H19.1357C19.5098 22.4944 20.5134 23.25 21.6792 23.25C22.8451 23.25 23.8487 22.4944 24.2228 21.45H27.0793C27.3179 21.45 27.5468 21.3551 27.7156 21.1864C27.8844 21.0176 27.9792 20.7887 27.9792 20.55V14.25C27.9794 14.0456 27.91 13.8472 27.7824 13.6875L24.1824 9.1875C24.098 9.08211 23.991 8.99705 23.8693 8.93863C23.7476 8.88021 23.6143 8.84992 23.4792 8.85H18.0792V7.05C18.0792 6.81131 17.9844 6.58239 17.8156 6.41362C17.6468 6.24484 17.4179 6.15002 17.1792 6.15H11.7792C11.7792 3.17833 9.35092 0.75 6.37925 0.75ZM6.37925 2.55C8.37813 2.55 9.97925 4.15112 9.97925 6.15C9.97925 8.14888 8.37813 9.75 6.37925 9.75C5.61644 9.75 4.91148 9.51666 4.3314 9.11719C4.26187 9.04373 4.18045 8.98252 4.09058 8.93613C3.28824 8.27769 2.77925 7.27705 2.77925 6.15C2.77925 4.15112 4.38037 2.55 6.37925 2.55ZM11.4681 7.95H16.2792V19.65H10.7228C10.3487 18.6056 9.34507 17.85 8.17925 17.85C7.01343 17.85 6.00982 18.6056 5.63569 19.65H4.57925V11.2389C5.14289 11.4395 5.74866 11.55 6.37925 11.55C8.72033 11.55 10.7231 10.0426 11.4681 7.95ZM18.0792 10.65H19.8792V15.15C19.8793 15.3887 19.9741 15.6176 20.1429 15.7864C20.3117 15.9551 20.5406 16.05 20.7792 16.05H26.1792V19.65H24.2228C23.8487 18.6056 22.8451 17.85 21.6792 17.85C20.5134 17.85 19.5098 18.6056 19.1357 19.65H18.0792V10.65ZM21.6792 10.65H23.0468L25.9261 14.25H21.6792V10.65ZM8.17925 19.65C8.68696 19.65 9.07925 20.0423 9.07925 20.55C9.07925 21.0577 8.68696 21.45 8.17925 21.45C7.67153 21.45 7.27925 21.0577 7.27925 20.55C7.27925 20.0423 7.67153 19.65 8.17925 19.65ZM21.6792 19.65C22.187 19.65 22.5792 20.0423 22.5792 20.55C22.5792 21.0577 22.187 21.45 21.6792 21.45C21.1715 21.45 20.7792 21.0577 20.7792 20.55C20.7792 20.0423 21.1715 19.65 21.6792 19.65Z" fill="#061513"/>
</svg>
