<svg width="24" height="25" viewBox="0 0 24 25" fill="none" xmlns="http://www.w3.org/2000/svg">
<path d="M0 24.1865L1.687 18.0235C0.646 16.2195 0.099 14.1745 0.1 12.0775C0.103 5.52152 5.438 0.186523 11.993 0.186523C15.174 0.187523 18.16 1.42652 20.406 3.67452C22.651 5.92252 23.887 8.91052 23.886 12.0885C23.883 18.6455 18.548 23.9805 11.993 23.9805C10.003 23.9795 8.042 23.4805 6.305 22.5325L0 24.1865ZM6.597 20.3795C8.273 21.3745 9.873 21.9705 11.989 21.9715C17.437 21.9715 21.875 17.5375 21.878 12.0865C21.88 6.62452 17.463 2.19652 11.997 2.19452C6.545 2.19452 2.11 6.62852 2.108 12.0785C2.107 14.3035 2.759 15.9695 3.854 17.7125L2.855 21.3605L6.597 20.3795ZM17.984 14.9155C17.91 14.7915 17.712 14.7175 17.414 14.5685C17.117 14.4195 15.656 13.7005 15.383 13.6015C15.111 13.5025 14.913 13.4525 14.714 13.7505C14.516 14.0475 13.946 14.7175 13.773 14.9155C13.6 15.1135 13.426 15.1385 13.129 14.9895C12.832 14.8405 11.874 14.5275 10.739 13.5145C9.856 12.7265 9.259 11.7535 9.086 11.4555C8.913 11.1585 9.068 10.9975 9.216 10.8495C9.35 10.7165 9.513 10.5025 9.662 10.3285C9.813 10.1565 9.862 10.0325 9.962 9.83352C10.061 9.63552 10.012 9.46152 9.937 9.31252C9.862 9.16452 9.268 7.70152 9.021 7.10652C8.779 6.52752 8.534 6.60552 8.352 6.59652L7.782 6.58652C7.584 6.58652 7.262 6.66052 6.99 6.95852C6.718 7.25652 5.95 7.97452 5.95 9.43752C5.95 10.9005 7.015 12.3135 7.163 12.5115C7.312 12.7095 9.258 15.7115 12.239 16.9985C12.948 17.3045 13.502 17.4875 13.933 17.6245C14.645 17.8505 15.293 17.8185 15.805 17.7425C16.376 17.6575 17.563 17.0235 17.811 16.3295C18.059 15.6345 18.059 15.0395 17.984 14.9155Z" fill="#61CCAC"/>
</svg>
