<svg width="21" height="31" viewBox="0 0 21 31" fill="none" xmlns="http://www.w3.org/2000/svg">
<path d="M20.9792 15.1865C20.9792 12.8062 20.087 10.6306 18.62 8.97547C18.6173 8.96516 18.6149 8.95484 18.6114 8.94459L17.4189 5.36686C17.3038 5.02174 17.0642 4.74547 16.7605 4.579V1.59277C16.7605 0.817402 16.1296 0.186523 15.3542 0.186523H7.85425C7.07888 0.186523 6.448 0.817402 6.448 1.59277V4.57895C6.14425 4.74547 5.90466 5.02174 5.78964 5.36686L4.59708 8.94459C4.59368 8.95484 4.59116 8.96516 4.58847 8.97547C3.72515 9.94953 3.06081 11.1037 2.66044 12.374H1.7605C0.985068 12.374 0.354248 13.0048 0.354248 13.7803V16.5928C0.354248 17.3682 0.985068 17.999 1.7605 17.999H2.66044C3.06081 19.2695 3.72521 20.4237 4.58858 21.3978C4.59128 21.4081 4.59374 21.4183 4.59714 21.4285L5.7897 25.0063C5.90472 25.3513 6.14419 25.6276 6.44794 25.7941V28.7803C6.44794 29.5556 7.07882 30.1865 7.85419 30.1865H15.3542C16.1296 30.1865 16.7604 29.5556 16.7604 28.7803V25.7942C17.0643 25.6276 17.3039 25.3513 17.4189 25.0062L18.6115 21.4285C18.615 21.4181 18.6175 21.4077 18.6202 21.3973C20.0871 19.7423 20.9792 17.5668 20.9792 15.1865ZM6.67897 5.66334C6.7429 5.47162 6.92161 5.34277 7.1237 5.34277H13.0103C13.2692 5.34277 13.4791 5.13289 13.4791 4.87402C13.4791 4.61516 13.2692 4.40527 13.0103 4.40527H7.3855V1.59277C7.3855 1.33432 7.59579 1.12402 7.85425 1.12402H15.3542C15.6127 1.12402 15.823 1.33432 15.823 1.59277V4.40527H14.8856C14.6267 4.40527 14.4168 4.61516 14.4168 4.87402C14.4168 5.13289 14.6267 5.34277 14.8856 5.34277H16.0848C16.2869 5.34277 16.4656 5.47156 16.5295 5.66328L17.1975 7.66742C15.6351 6.50211 13.6988 5.81152 11.6042 5.81152C9.5097 5.81152 7.57341 6.50211 6.01095 7.66742L6.67897 5.66334ZM1.7605 17.0615C1.50204 17.0615 1.29175 16.8512 1.29175 16.5928V13.7803C1.29175 13.5218 1.50204 13.3115 1.7605 13.3115H2.41774C2.29423 13.9176 2.22925 14.5446 2.22925 15.1865C2.22925 15.8285 2.29423 16.4555 2.41774 17.0615H1.7605ZM11.6042 6.74902C16.2567 6.74902 20.0417 10.5341 20.0417 15.1865C20.0417 19.839 16.2567 23.624 11.6042 23.624C6.95179 23.624 3.16675 19.839 3.16675 15.1865C3.16675 10.5341 6.95179 6.74902 11.6042 6.74902ZM16.5296 24.7098C16.4657 24.9015 16.2869 25.0303 16.0849 25.0303H14.8857C14.6268 25.0303 14.4169 25.2402 14.4169 25.499C14.4169 25.7579 14.6268 25.9678 14.8857 25.9678H15.823V28.7803C15.823 29.0387 15.6127 29.249 15.3542 29.249H7.85425C7.59579 29.249 7.3855 29.0387 7.3855 28.7803V25.9678H13.0104C13.2693 25.9678 13.4792 25.7579 13.4792 25.499C13.4792 25.2402 13.2693 25.0303 13.0104 25.0303H7.12382C6.92173 25.0303 6.74302 24.9015 6.67909 24.7098L6.01106 22.7057C7.57353 23.8709 9.50976 24.5615 11.6042 24.5615C13.6989 24.5615 15.6352 23.8709 17.1977 22.7055L16.5296 24.7098Z" fill="white"/>
<path d="M11.6042 22.6865C15.7398 22.6865 19.1042 19.3221 19.1042 15.1865C19.1042 13.5482 18.5855 11.9918 17.6039 10.6854C17.4484 10.4784 17.1545 10.4367 16.9475 10.5922C16.7406 10.7477 16.6989 11.0415 16.8544 11.2486C17.6188 12.2659 18.0613 13.4571 18.1495 14.7178H17.698C17.4391 14.7178 17.2292 14.9277 17.2292 15.1865C17.2292 15.4454 17.4391 15.6553 17.698 15.6553H18.1498C17.9196 18.901 15.3187 21.5019 12.073 21.7321V21.2803C12.073 21.0214 11.8631 20.8115 11.6042 20.8115C11.3454 20.8115 11.1355 21.0214 11.1355 21.2803V21.7321C7.88976 21.5019 5.2889 18.901 5.05868 15.6553H5.5105C5.76937 15.6553 5.97925 15.4454 5.97925 15.1865C5.97925 14.9277 5.76937 14.7178 5.5105 14.7178H5.05868C5.2889 11.472 7.88976 8.87117 11.1355 8.64096V9.09277C11.1355 9.35164 11.3454 9.56152 11.6042 9.56152C11.8631 9.56152 12.073 9.35164 12.073 9.09277V8.64131C13.3335 8.72937 14.5244 9.17182 15.5416 9.93588C15.7485 10.0913 16.0424 10.0497 16.1979 9.8426C16.3533 9.63559 16.3116 9.3418 16.1046 9.18629C14.7984 8.20514 13.2422 7.68652 11.6042 7.68652C7.4687 7.68652 4.10425 11.051 4.10425 15.1865C4.10425 19.3221 7.4687 22.6865 11.6042 22.6865Z" fill="white"/>
<path d="M11.6042 10.499C11.3454 10.499 11.1355 10.7089 11.1355 10.9678V15.1865C11.1355 15.1904 11.136 15.1942 11.1361 15.1981C11.1363 15.2076 11.1367 15.2171 11.1375 15.2266C11.1381 15.233 11.1388 15.2393 11.1397 15.2455C11.1408 15.2543 11.1421 15.263 11.1436 15.2718C11.1449 15.2788 11.1464 15.2857 11.148 15.2926C11.1499 15.3003 11.1518 15.308 11.154 15.3157C11.1562 15.3234 11.1586 15.3309 11.1612 15.3384C11.1635 15.3451 11.1659 15.3518 11.1685 15.3585C11.1718 15.3666 11.1753 15.3747 11.1789 15.3826C11.1817 15.3885 11.1844 15.3944 11.1874 15.4002C11.1917 15.4085 11.1963 15.4166 11.201 15.4246C11.2031 15.428 11.2047 15.4316 11.2068 15.435L13.5506 19.185C13.6395 19.3273 13.7923 19.4054 13.9485 19.4054C14.0334 19.4054 14.1193 19.3824 14.1965 19.3341C14.416 19.1969 14.4827 18.9077 14.3456 18.6881L12.073 15.0521V10.9678C12.073 10.7089 11.8631 10.499 11.6042 10.499Z" fill="white"/>
</svg>
