<svg width="33" height="25" viewBox="0 0 33 25" fill="none" xmlns="http://www.w3.org/2000/svg">
<rect x="1.31323" y="0.686523" width="31" height="23" rx="3.5" fill="#F2F4F7"/>
<rect x="1.31323" y="0.686523" width="31" height="23" rx="3.5" stroke="#F2F4F7"/>
<path fill-rule="evenodd" clip-rule="evenodd" d="M10.8636 16.0356H8.80384L7.25929 9.96972C7.18597 9.69069 7.03031 9.44401 6.80134 9.32775C6.22992 9.03557 5.60025 8.80305 4.91333 8.68578V8.45224H8.23141C8.68935 8.45224 9.03281 8.80305 9.09005 9.21047L9.89146 13.586L11.9502 8.45224H13.9527L10.8636 16.0356ZM15.0976 16.0356H13.1523L14.7541 8.45224H16.6994L15.0976 16.0356ZM19.216 10.5531C19.2733 10.1446 19.6167 9.91109 20.0174 9.91109C20.6471 9.85245 21.333 9.96972 21.9054 10.2609L22.2489 8.62815C21.6765 8.39462 21.0468 8.27734 20.4754 8.27734C18.5874 8.27734 17.2135 9.32775 17.2135 10.7856C17.2135 11.8946 18.1867 12.4769 18.8736 12.8278C19.6167 13.1776 19.9029 13.4111 19.8457 13.7609C19.8457 14.2856 19.2733 14.5191 18.7018 14.5191C18.0149 14.5191 17.328 14.3442 16.6994 14.0521L16.3559 15.6858C17.0428 15.977 17.786 16.0942 18.4729 16.0942C20.5899 16.1519 21.9054 15.1025 21.9054 13.5274C21.9054 11.5438 19.216 11.4276 19.216 10.5531ZM28.7133 16.0356L27.1688 8.45224H25.5097C25.1663 8.45224 24.8228 8.68578 24.7083 9.03557L21.8482 16.0356H23.8507L24.2504 14.9276H26.7108L26.9398 16.0356H28.7133ZM25.796 10.4944L26.3674 13.3525H24.7656L25.796 10.4944Z" fill="#172B85"/>
</svg>
