<svg width="24" height="25" viewBox="0 0 24 25" fill="none" xmlns="http://www.w3.org/2000/svg">
<g clip-path="url(#clip0_134_4390)">
<path d="M17.0725 0.186523H13.0278V16.5343C13.0278 18.4822 11.4722 20.0822 9.53626 20.0822C7.60034 20.0822 6.04469 18.4822 6.04469 16.5343C6.04469 14.6213 7.56577 13.0561 9.43257 12.9865V8.88219C5.31872 8.95172 2 12.3257 2 16.5343C2 20.7779 5.38786 24.1865 9.57085 24.1865C13.7538 24.1865 17.1416 20.7431 17.1416 16.5343V8.15172C18.6627 9.26479 20.5295 9.92566 22.5 9.96046V5.85609C19.4579 5.75174 17.0725 3.24739 17.0725 0.186523Z" fill="#061513"/>
</g>
<defs>
<clipPath id="clip0_134_4390">
<rect width="24" height="24" fill="white" transform="translate(0 0.186523)"/>
</clipPath>
</defs>
</svg>
