<svg width="22" height="30" viewBox="0 0 22 30" fill="none" xmlns="http://www.w3.org/2000/svg">
<path d="M21.3125 15C21.3125 12.6196 20.4202 10.444 18.9533 8.78895C18.9506 8.77863 18.9481 8.76832 18.9447 8.75807L17.7521 5.18033C17.637 4.83522 17.3975 4.55895 17.0938 4.39248V1.40625C17.0938 0.630879 16.4629 0 15.6875 0H8.1875C7.41213 0 6.78125 0.630879 6.78125 1.40625V4.39242C6.4775 4.55895 6.23791 4.83522 6.12289 5.18033L4.93033 8.75807C4.92693 8.76832 4.92441 8.77863 4.92172 8.78895C4.0584 9.76301 3.39406 10.9172 2.99369 12.1875H2.09375C1.31832 12.1875 0.6875 12.8183 0.6875 13.5938V16.4062C0.6875 17.1817 1.31832 17.8125 2.09375 17.8125H2.99369C3.39406 19.0829 4.05846 20.2372 4.92184 21.2113C4.92453 21.2215 4.92699 21.2318 4.93039 21.242L6.12295 24.8197C6.23797 25.1648 6.47744 25.4411 6.78119 25.6076V28.5938C6.78119 29.3691 7.41207 30 8.18744 30H15.6874C16.4628 30 17.0937 29.3691 17.0937 28.5938V25.6076C17.3976 25.4411 17.6371 25.1648 17.7522 24.8197L18.9448 21.2419C18.9482 21.2316 18.9508 21.2212 18.9535 21.2108C20.4204 19.5558 21.3125 17.3803 21.3125 15ZM7.01223 5.47682C7.07615 5.2851 7.25486 5.15625 7.45695 5.15625H13.3436C13.6024 5.15625 13.8123 4.94637 13.8123 4.6875C13.8123 4.42863 13.6024 4.21875 13.3436 4.21875H7.71875V1.40625C7.71875 1.14779 7.92904 0.9375 8.1875 0.9375H15.6875C15.946 0.9375 16.1562 1.14779 16.1562 1.40625V4.21875H15.2188C14.9599 4.21875 14.7501 4.42863 14.7501 4.6875C14.7501 4.94637 14.9599 5.15625 15.2188 5.15625H16.418C16.6201 5.15625 16.7988 5.28504 16.8628 5.47676L17.5308 7.4809C15.9683 6.31559 14.0321 5.625 11.9375 5.625C9.84295 5.625 7.90666 6.31559 6.3442 7.4809L7.01223 5.47682ZM2.09375 16.875C1.83529 16.875 1.625 16.6647 1.625 16.4062V13.5938C1.625 13.3353 1.83529 13.125 2.09375 13.125H2.751C2.62748 13.731 2.5625 14.358 2.5625 15C2.5625 15.642 2.62748 16.269 2.751 16.875H2.09375ZM11.9375 6.5625C16.59 6.5625 20.375 10.3475 20.375 15C20.375 19.6525 16.59 23.4375 11.9375 23.4375C7.28504 23.4375 3.5 19.6525 3.5 15C3.5 10.3475 7.28504 6.5625 11.9375 6.5625ZM16.8628 24.5232C16.7989 24.715 16.6202 24.8438 16.4182 24.8438H15.2189C14.9601 24.8438 14.7502 25.0536 14.7502 25.3125C14.7502 25.5714 14.9601 25.7812 15.2189 25.7812H16.1562V28.5938C16.1562 28.8522 15.946 29.0625 15.6875 29.0625H8.1875C7.92904 29.0625 7.71875 28.8522 7.71875 28.5938V25.7812H13.3437C13.6026 25.7812 13.8124 25.5714 13.8124 25.3125C13.8124 25.0536 13.6026 24.8438 13.3437 24.8438H7.45707C7.25498 24.8438 7.07627 24.715 7.01234 24.5232L6.34432 22.5192C7.90678 23.6844 9.84301 24.375 11.9375 24.375C14.0322 24.375 15.9685 23.6844 17.5309 22.519L16.8628 24.5232Z" fill="white"/>
<path d="M11.9375 22.5C16.073 22.5 19.4375 19.1355 19.4375 15C19.4375 13.3617 18.9187 11.8052 17.9371 10.4988C17.7816 10.2919 17.4878 10.2502 17.2808 10.4057C17.0738 10.5612 17.0321 10.855 17.1876 11.062C17.952 12.0793 18.3946 13.2705 18.4827 14.5312H18.0312C17.7724 14.5312 17.5625 14.7411 17.5625 15C17.5625 15.2589 17.7724 15.4688 18.0312 15.4688H18.4831C18.2529 18.7145 15.652 21.3154 12.4062 21.5456V21.0938C12.4062 20.8349 12.1964 20.625 11.9375 20.625C11.6786 20.625 11.4688 20.8349 11.4688 21.0938V21.5456C8.22301 21.3154 5.62215 18.7145 5.39193 15.4688H5.84375C6.10262 15.4688 6.3125 15.2589 6.3125 15C6.3125 14.7411 6.10262 14.5312 5.84375 14.5312H5.39193C5.62215 11.2855 8.22301 8.68465 11.4688 8.45443V8.90625C11.4688 9.16512 11.6786 9.375 11.9375 9.375C12.1964 9.375 12.4062 9.16512 12.4062 8.90625V8.45479C13.6667 8.54285 14.8576 8.98529 15.8748 9.74936C16.0817 9.90475 16.3756 9.86314 16.5311 9.65607C16.6866 9.44906 16.6449 9.15527 16.4379 8.99977C15.1317 8.01861 13.5755 7.5 11.9375 7.5C7.80195 7.5 4.4375 10.8645 4.4375 15C4.4375 19.1355 7.80195 22.5 11.9375 22.5Z" fill="white"/>
<path d="M11.9375 10.3125C11.6786 10.3125 11.4688 10.5224 11.4688 10.7812V15C11.4688 15.0039 11.4692 15.0077 11.4693 15.0116C11.4696 15.0211 11.47 15.0306 11.4708 15.0401C11.4713 15.0465 11.4721 15.0527 11.4729 15.059C11.474 15.0678 11.4753 15.0765 11.4769 15.0853C11.4782 15.0923 11.4796 15.0992 11.4813 15.1061C11.4831 15.1138 11.485 15.1215 11.4873 15.1292C11.4894 15.1369 11.4919 15.1444 11.4945 15.1519C11.4968 15.1586 11.4992 15.1653 11.5018 15.172C11.505 15.1801 11.5085 15.1881 11.5122 15.1961C11.5149 15.202 11.5177 15.2078 11.5207 15.2136C11.5249 15.222 11.5295 15.23 11.5343 15.2381C11.5363 15.2415 11.5379 15.2451 11.5401 15.2485L13.8838 18.9985C13.9728 19.1408 14.1255 19.2189 14.2818 19.2189C14.3666 19.2189 14.4525 19.1958 14.5297 19.1476C14.7493 19.0103 14.816 18.7212 14.6788 18.5016L12.4062 14.8655V10.7812C12.4062 10.5224 12.1964 10.3125 11.9375 10.3125Z" fill="white"/>
</svg>
