<svg width="35" height="24" viewBox="0 0 35 24" fill="none" xmlns="http://www.w3.org/2000/svg">
<rect x="1.31323" y="0.686523" width="33.1868" height="22.2561" rx="3.5" fill="#1F72CD"/>
<rect x="1.31323" y="0.686523" width="33.1868" height="22.2561" rx="3.5" stroke="#F2F4F7"/>
<path fill-rule="evenodd" clip-rule="evenodd" d="M6.99434 8.18652L3.81323 15.4333H7.62147L8.09358 14.2778H9.17272L9.64483 15.4333H13.8366V14.5514L14.2101 15.4333H16.3785L16.752 14.5328V15.4333H25.4698L26.5298 14.3078L27.5224 15.4333L32.0001 15.4426L28.8089 11.8301L32.0001 8.18652H27.5919L26.56 9.29115L25.5986 8.18652H16.1148L15.3004 10.057L14.467 8.18652H10.6667V9.03838L10.2439 8.18652H6.99434ZM7.73122 9.21557H9.58753L11.6976 14.1296V9.21557H13.7311L15.3608 12.7389L16.8628 9.21557H18.8862V14.4156H17.655L17.645 10.3409L15.8501 14.4156H14.7487L12.9437 10.3409V14.4156H10.411L9.93079 13.2498H7.33662L6.85744 14.4146H5.5004L7.73122 9.21557ZM25.0188 9.21557H20.0126V14.4125H24.9413L26.5298 12.6902L28.061 14.4125H29.6616L27.3351 11.8291L29.6616 9.21557H28.1304L26.5499 10.9181L25.0188 9.21557ZM8.63425 10.0954L7.77957 12.1721H9.48793L8.63425 10.0954ZM21.2488 11.2415V10.2922V10.2913H24.3725L25.7355 11.8094L24.3121 13.3358H21.2488V12.2995H23.9799V11.2415H21.2488Z" fill="#F2F4F7"/>
</svg>
