<svg width="128" height="25" viewBox="0 0 128 25" fill="none" xmlns="http://www.w3.org/2000/svg">
<path d="M24 0.186523H0V24.1865H24V0.186523Z" fill="#61CCAC"/>
<path d="M50 0.186523H26V24.1865H50V0.186523Z" fill="#61CCAC"/>
<path d="M76 0.186523H52V24.1865H76V0.186523Z" fill="#61CCAC"/>
<path d="M102 0.186523H78V24.1865H102V0.186523Z" fill="#61CCAC"/>
<path d="M128 0.186523H104V24.1865H128V0.186523Z" fill="#61CCAC"/>
<path d="M11.9996 16.3613L15.6496 15.4363L17.1746 20.1363L11.9996 16.3613ZM20.3996 10.2863H13.9746L11.9996 4.23633L10.0246 10.2863H3.59961L8.79961 14.0363L6.82461 20.0863L12.0246 16.3363L15.2246 14.0363L20.3996 10.2863Z" fill="#F2F4F7"/>
<path d="M38.0001 16.3613L41.6501 15.4363L43.1751 20.1363L38.0001 16.3613ZM46.4001 10.2863H39.9751L38.0001 4.23633L36.0251 10.2863H29.6001L34.8001 14.0363L32.8251 20.0863L38.0251 16.3363L41.2251 14.0363L46.4001 10.2863Z" fill="#F2F4F7"/>
<path d="M64.0001 16.3613L67.6501 15.4363L69.1751 20.1363L64.0001 16.3613ZM72.4001 10.2863H65.9751L64.0001 4.23633L62.0251 10.2863H55.6001L60.8001 14.0363L58.8251 20.0863L64.0251 16.3363L67.2251 14.0363L72.4001 10.2863Z" fill="#F2F4F7"/>
<path d="M89.9996 16.3613L93.6496 15.4363L95.1746 20.1363L89.9996 16.3613ZM98.3996 10.2863H91.9746L89.9996 4.23633L88.0246 10.2863H81.5996L86.7996 14.0363L84.8246 20.0863L90.0246 16.3363L93.2246 14.0363L98.3996 10.2863Z" fill="#F2F4F7"/>
<path d="M116 16.3613L119.65 15.4363L121.175 20.1363L116 16.3613ZM124.4 10.2863H117.975L116 4.23633L114.025 10.2863H107.6L112.8 14.0363L110.825 20.0863L116.025 16.3363L119.225 14.0363L124.4 10.2863Z" fill="#F2F4F7"/>
</svg>
