<svg width="105" height="42" viewBox="0 0 105 42" fill="none" xmlns="http://www.w3.org/2000/svg">
<path fill-rule="evenodd" clip-rule="evenodd" d="M14.3833 20.9181C14.9562 20.9181 15.2021 21.491 15.2021 22.3909V28.6127C15.2021 31.8859 13.5652 31.9682 12.91 31.6406C12.0912 31.2312 11.9277 29.8402 11.9277 28.5303V22.3915C11.9277 21.491 12.2553 20.9187 12.8282 20.9187V20.5911H9.47206V20.9187C10.0449 20.9187 10.2908 21.4916 10.2908 22.3915V29.1861C10.2908 30.4137 11.0278 32.3788 12.7464 32.5417C14.4651 32.624 15.6115 31.5594 15.6115 28.5309V22.3915C15.6115 21.491 15.9385 20.9187 16.4302 20.9187V20.5911H14.3833V20.9181ZM20.3586 20.5905H17.166V20.9181C17.7389 20.9181 18.0665 21.491 18.0665 22.3909V30.4131C18.0665 31.3136 17.7395 31.8859 17.166 31.8859V32.2135H20.6039C21.3409 32.2135 22.0773 31.8053 22.8143 30.9036C23.9601 29.3485 24.2877 25.9929 23.7148 23.9461C23.1419 21.3281 21.832 20.5905 20.3586 20.5905ZM21.9961 29.4308C21.8326 30.249 21.5868 31.7229 20.1134 31.7229C19.704 31.7229 19.704 31.5588 19.704 30.6583V22.1456C19.704 21.2451 19.704 21.1634 20.1134 21.1634C20.6863 21.1634 21.0956 21.081 21.5868 22.0639C22.4049 23.619 22.4049 27.384 21.9961 29.4308ZM46.6343 14.6152H45.4062L47.0431 10.5227H50.2357V14.6152H48.7623V15.2699H57.6844V14.6152H56.2116V8.63992H58.4214C59.2395 8.63992 59.8942 7.90352 59.8942 7.24829V1.51886C59.8942 1.02773 59.3213 0.208984 58.339 0.208984H48.7623V0.863624H49.9087L44.5886 14.6152H43.4423V15.2699H46.6349L46.6343 14.6152ZM56.211 0.863624H57.2756C57.5209 0.863624 57.6838 1.02714 57.6838 1.2724V7.57532C57.6838 7.82118 57.5209 7.98469 57.2756 7.98469H56.211V0.863624ZM52.3637 0.863624H54.083V14.6152H52.3637V0.863624ZM50.2357 2.1735V9.78628H47.2072L50.2357 2.1735ZM27.2344 31.7235C26.7433 31.6412 26.6616 31.3959 26.6616 30.5766V26.6482C27.8073 26.7293 28.0532 27.0563 28.3802 29.1856H28.5437V23.5379H28.3802C28.0526 25.6659 27.8073 25.9112 26.6616 26.0753V22.1456C26.6616 21.2451 26.7433 21.081 27.0709 21.1634H27.9714C29.6089 21.2457 29.6907 23.5379 29.7724 24.1108H30.0183V20.5905H24.2065V20.9181C24.6976 20.9181 25.0247 21.491 25.0247 22.3909V30.4131C25.0247 31.3136 24.697 31.8859 24.2065 31.8859V32.2135H30.1L30.5094 28.6938H30.2636C29.5266 31.1507 28.7078 31.8865 27.2344 31.7235ZM8.65391 18.2172L5.21601 18.1355V18.7901H6.28003L1.28699 31.7235H0.140625V32.3782H3.16915V31.7235H1.94103L3.49618 27.8763H6.5247V31.7235H5.13307V32.3782H9.9626V31.7235H8.65332V18.2172H8.65391ZM6.52529 27.384H3.74263L6.52529 20.1811V27.384ZM70.2896 18.1349H64.8872V18.7895H66.1971V31.7229H64.7243V32.3776H69.7173V31.7229H68.3263V26.0753H70.4543C71.1913 26.0753 71.7642 25.3383 71.7642 24.8477V19.363C71.7636 18.9536 71.2719 18.1349 70.2896 18.1349ZM69.7167 25.093C69.7167 25.3383 69.5538 25.5012 69.3086 25.5012H68.3263V18.7901H69.3086C69.5538 18.7901 69.7167 18.9536 69.7167 19.1171V25.093ZM80.4398 27.3034C81.0127 27.3034 81.2591 27.8763 81.2591 28.7762V30.986C81.2591 31.2312 81.2591 31.6406 80.8498 31.8865C80.6045 32.0506 80.2769 32.0506 80.0316 32.0506C79.8675 32.0506 79.6222 32.0506 79.4576 31.8053C78.967 31.4777 78.7217 30.823 78.4765 29.6761C78.3124 28.9403 78.23 27.7116 78.23 26.4835C78.23 25.1736 78.3124 23.9461 78.4765 23.2103C78.7217 22.0633 78.967 21.4087 79.4576 21.081C79.6129 20.9326 79.8169 20.8454 80.0316 20.8358C80.6863 20.8358 82.1596 21.9827 82.6502 24.5189H82.8966V20.4264H82.6502C82.4873 20.754 82.4873 21.3275 81.9144 21.1634C81.5868 20.9999 80.9321 20.5088 80.0316 20.4264C79.377 20.4264 78.6394 20.754 77.9848 21.4904C77.0025 22.4727 76.512 24.4378 76.512 26.4835C76.512 28.448 77.0025 30.4131 77.9848 31.4777C78.6394 32.1317 79.377 32.5411 80.0316 32.5411C80.3592 32.5411 80.6863 32.5411 81.0127 32.4588C81.2591 32.3776 82.6502 32.0506 82.8966 31.6406V28.7756C82.8966 27.8751 83.2243 27.3028 83.7971 27.3028V26.9752H80.4404V27.3034H80.4398ZM88.7072 20.9181C89.2801 20.9181 89.5266 21.491 89.5266 22.3909V28.6127C89.5266 31.8859 87.8891 31.9682 87.2345 31.6406C86.4151 31.2312 86.2522 29.8402 86.2522 28.5303V22.3915C86.2522 21.491 86.5798 20.9187 87.1527 20.9187V20.5911H83.7971V20.9187C84.37 20.9187 84.6153 21.4916 84.6153 22.3915V29.1861C84.6153 30.4137 85.3523 32.3788 87.0709 32.5417C88.7902 32.624 89.936 31.5594 89.936 28.5309V22.3915C89.936 21.491 90.2636 20.9187 90.7553 20.9187V20.5911H88.7072V20.9181ZM94.6825 31.7235C94.1096 31.6412 94.1096 31.3959 94.1096 30.5766V26.6482C95.2566 26.7293 95.4195 27.0563 95.7471 29.1856H95.9924V23.5379H95.7471C95.4195 25.6659 95.2566 25.9112 94.1096 26.0753V22.1456C94.1096 21.2451 94.192 21.081 94.519 21.1634H95.4195C97.057 21.2457 97.1388 23.5379 97.2199 24.1108H97.384V20.5905H91.5717V20.9181C92.1445 20.9181 92.4722 21.491 92.4722 22.3909V30.4131C92.4722 31.3136 92.1445 31.8859 91.5717 31.8859V32.2135H97.4658L97.9563 28.6938H97.6287C96.8923 31.1507 96.1565 31.8865 94.6825 31.7235ZM98.1204 20.5905V24.0284H98.3669C98.448 23.619 98.4481 22.8009 98.9398 21.9004C99.5126 20.9181 100.167 21.1634 100.413 21.1634V30.4131C100.413 31.3136 100.085 31.8859 99.5944 31.8859V32.2135H102.869V31.8859C102.377 31.8859 102.049 31.313 102.049 30.4131V21.1634C102.295 21.1634 102.95 20.9181 103.522 21.9004C104.014 22.8009 104.014 23.6184 104.096 24.0284H104.259V20.5905H98.1204ZM35.9112 28.5309L33.7832 20.5905H30.9182V20.9181C31.6552 20.9181 31.9005 21.1634 31.9005 22.3909V30.4131C31.9005 31.3136 31.6546 31.8859 31 31.8859V32.2135H33.2921V31.8859C32.7192 31.8859 32.3916 31.313 32.3916 30.4131V22.0639L35.1742 32.2141H35.4201L38.2845 22.0639V30.4137C38.2845 31.3142 37.9575 31.8865 37.384 31.8865V32.2141H40.986V31.8865C40.4131 31.8865 40.0855 31.3136 40.0855 30.4137V22.3915C40.0855 21.491 40.4131 20.9187 40.986 20.9187V20.5911H38.2028L35.9112 28.5309ZM55.474 31.2312L53.5095 26.4835C54.0836 26.2382 54.5741 25.8288 54.9017 24.9283C55.3111 23.8649 55.0658 22.4727 54.6565 21.7357C54.0836 20.8352 53.1013 20.5899 52.2826 20.5899H49.0899V20.9175C49.5811 20.9175 49.9087 21.4904 49.9087 22.3903V30.4125C49.9087 31.313 49.5811 31.8853 49.0899 31.8853H49.1717V32.2129H52.3643V31.8853C51.8732 31.8853 51.5462 31.3124 51.5462 30.4125V26.8105H51.7915L53.9195 32.2129H55.9663V31.8853C55.8016 31.8865 55.7193 31.9688 55.474 31.2312ZM53.346 24.9289C53.0184 26.4841 52.0361 26.2388 51.545 26.2388V21.901C51.545 21.4093 51.7903 21.164 51.9538 21.164C52.7725 21.0005 53.1001 21.5734 53.2631 22.2286C53.4283 22.6368 53.5095 24.1108 53.346 24.9289ZM47.7801 31.0683L45.1609 20.5905H44.9151L42.3777 30.7407C42.1318 31.7229 41.8865 31.8865 41.6413 31.8865V32.2141H43.6875V31.8865C42.9511 31.8865 42.7053 31.3136 42.9511 30.4137L43.2788 28.8585H45.6526L46.1438 30.823C46.3073 31.7235 45.6526 31.8865 45.2433 31.8865V32.2141H48.4359V31.8865C48.2712 31.8865 47.9436 31.8053 47.7801 31.0683ZM43.4417 28.2033L44.4239 23.9461L45.4879 28.2033H43.4417ZM72.5818 20.9181C73.2364 20.9181 73.564 21.491 73.564 22.3909V30.4131C73.564 31.3136 73.2364 31.8859 72.5818 31.8859V32.2135H76.1014V31.8859C75.4468 31.8859 75.2009 31.313 75.2009 30.4131V22.3915C75.2009 21.491 75.4462 20.9187 76.1014 20.9187V20.5911H72.5818V20.9181ZM59.6489 25.1742C58.339 24.5195 57.9297 23.619 57.9297 22.8832C57.9297 22.4739 58.0938 20.9999 59.0766 20.9999C60.5494 20.9999 61.0411 23.2914 61.2864 24.1919H61.5317V20.427H61.2864C61.1223 20.7546 61.1223 20.9999 60.877 20.9999C60.3041 20.9999 59.8124 20.427 58.6672 20.427C57.685 20.427 56.5392 21.3281 56.5392 23.619C56.5392 24.6836 56.8668 26.1564 58.1767 27.0569C59.9771 28.3668 60.6324 28.8585 60.6324 29.8408C60.6324 30.249 60.4694 31.9688 58.9949 31.9688C57.9303 31.9688 57.1945 30.2496 57.1121 29.5943L56.8668 28.3668H56.6216V32.5417H56.8668C56.8668 32.2141 56.9492 31.9688 57.0298 31.9688C57.6038 31.9688 58.5849 32.5417 59.2395 32.5417C61.6958 32.5417 62.1045 30.3319 62.1045 29.1861C62.1045 27.5487 61.3687 26.0753 59.6489 25.1742ZM0.385893 40.3992C0.877022 40.3992 0.958777 40.2362 1.04053 39.8263L1.61342 37.0436C1.61342 36.9613 1.69517 36.8795 1.69517 36.7983C1.69517 36.5519 1.44931 36.4707 1.20405 36.4707V36.3066H2.84094V36.4707C2.34981 36.4707 2.26806 36.6336 2.1863 37.0436L1.61342 39.8263V40.0715C1.61342 40.2356 1.69517 40.2356 2.02279 40.2356H2.43157C2.9227 40.2356 3.16856 40.0715 3.33207 39.581H3.41442L3.25091 40.4815H0.385893V40.3992ZM4.80605 38.5987C4.8878 38.2711 5.13366 37.7806 5.54304 37.7806C5.7889 37.7806 5.95241 37.9435 5.95241 38.1082C5.95241 38.5164 5.62479 38.5987 5.37952 38.5987H4.80605ZM6.03416 40.2362C5.87065 40.3186 5.7889 40.3186 5.62538 40.3186C4.8884 40.3186 4.72488 39.9092 4.72488 39.4175C4.72488 39.1722 4.72488 38.927 4.80664 38.7628H5.46128C5.95241 38.7628 6.44354 38.6817 6.44354 38.19C6.44354 37.7818 6.03416 37.5353 5.62538 37.5353C4.56137 37.5353 4.152 38.6823 4.152 39.4998C4.152 40.2368 4.56137 40.5644 5.13426 40.5644C5.54363 40.5644 5.87065 40.4821 6.03476 40.4003L6.03416 40.2362ZM9.79968 38.2711V38.0259C9.79968 38.0259 9.79968 37.9435 9.71792 37.9435C9.63617 37.9435 9.39031 38.1888 9.2268 38.3529H9.14504C9.30855 38.1076 9.79968 37.5336 10.0455 37.5336C10.2091 37.5336 10.2914 37.6977 10.2914 37.8612V38.2705L10.1279 39.0887V39.171C10.2914 38.6805 10.7825 37.5336 11.4372 37.5336C11.683 37.5336 11.8465 37.6977 11.8465 37.9429C11.8465 38.107 11.7648 38.1882 11.7648 38.3523L11.6013 39.0881V39.1704C11.8471 38.6799 12.3383 37.533 12.9929 37.533C13.2388 37.533 13.3205 37.6971 13.3205 37.9423V38.3517L12.9111 39.9068V40.0698C12.9111 40.1521 12.9111 40.1521 12.9929 40.1521C13.0747 40.1521 13.3205 39.9068 13.484 39.7427L13.5658 39.8251C13.4023 39.9892 12.9111 40.5621 12.6647 40.5621C12.5012 40.5621 12.4194 40.4797 12.4194 40.3168V39.9074L12.8288 38.3523V38.107C12.8288 38.0247 12.8288 37.9429 12.6647 37.9429C12.2559 37.9429 11.4372 39.9074 11.3554 40.4803H10.8643L11.2731 38.3523V38.107C11.2731 38.0247 11.2731 37.9429 11.1913 37.9429C10.7819 37.9429 10.1273 39.1704 9.79968 40.4803H9.30855L9.79968 38.2711ZM14.711 39.7445C14.711 39.0899 15.2021 37.7812 15.8567 37.7812C16.0202 37.7812 16.1026 38.0265 16.1026 38.1894C16.1026 38.9264 15.5297 40.2362 15.0386 40.2362C14.8745 40.2362 14.711 40.1539 14.711 39.7445ZM15.775 39.9086V40.318C15.775 40.3992 15.8567 40.5633 16.0208 40.5633C16.2667 40.5633 16.7578 39.9904 16.9213 39.8263L16.8396 39.7439C16.6761 39.908 16.4308 40.1533 16.3485 40.1533C16.2667 40.1533 16.2667 40.1533 16.2667 40.0709V39.908L16.7578 37.6159H16.2667L16.1849 37.9435C16.1026 37.7806 16.0208 37.5341 15.6932 37.5341C14.7927 37.5341 14.2198 39.1716 14.2198 39.8263C14.2198 40.1539 14.3016 40.5633 14.7927 40.5633C15.3656 40.5633 15.6932 39.8263 15.8567 39.581L15.775 39.9086ZM18.3941 36.389C18.5576 36.2249 18.64 36.1437 18.7217 36.1437C18.8035 36.1437 18.8853 36.2249 18.9676 36.389L19.2952 37.126H19.0488L18.6394 36.7166L17.9848 37.126H17.7395L18.3941 36.389ZM18.967 39.8263C18.8035 39.9904 18.3124 40.5633 18.0665 40.5633C17.903 40.5633 17.8212 40.4809 17.8212 40.318V39.9086L18.1489 38.2711C18.2306 38.1888 18.2306 38.1082 18.2306 38.0259C18.2306 37.9435 18.1489 37.9435 18.1489 37.9435C18.0665 37.9435 17.7395 38.1888 17.576 38.3529H17.4942C17.7401 38.1076 18.1489 37.5336 18.4765 37.5336C18.64 37.5336 18.7223 37.6977 18.7223 37.8612C18.7223 37.9435 18.7223 38.1076 18.6406 38.2705L18.3136 39.908V40.0709C18.3136 40.1533 18.3136 40.1533 18.3953 40.1533C18.4771 40.1533 18.7229 39.908 18.8864 39.7439L18.967 39.8263ZM21.0956 39.8263C20.8504 40.0715 20.3592 40.5633 20.0316 40.5633C19.8681 40.5633 19.7858 40.4809 19.7858 40.318C19.7858 40.1539 19.7858 39.9904 19.8675 39.9086L20.2769 37.8618H19.704L19.7858 37.6165C20.3586 37.6165 20.6863 37.3712 20.8498 36.716H21.0133L20.7674 37.6165H21.5862V37.8618H20.7674L20.3586 39.9086C20.3586 39.991 20.2769 40.0715 20.2769 40.0715C20.2769 40.1539 20.3586 40.1539 20.3586 40.1539C20.5222 40.1539 20.8498 39.9086 21.0133 39.7445L21.0956 39.8263ZM22.4873 38.2711V38.0259C22.4873 38.0259 22.4873 37.9435 22.4055 37.9435C22.3237 37.9435 22.0779 38.1888 21.9144 38.3529H21.8326C21.9961 38.1076 22.4055 37.5336 22.7331 37.5336C22.8966 37.5336 22.979 37.6977 22.979 37.8612V38.2705L22.8972 38.6799C22.979 38.4346 23.306 37.533 23.7977 37.533C24.0436 37.533 24.1253 37.6971 24.1253 37.8606C24.1253 38.0247 23.9618 38.1882 23.7977 38.1882C23.716 38.1882 23.6342 38.107 23.5525 38.107C23.3889 38.107 22.8155 38.8428 22.4884 40.4803H21.9973L22.4873 38.2711ZM25.1064 38.5987C25.1064 38.2711 25.3517 37.7806 25.8428 37.7806C26.0887 37.7806 26.2522 37.9435 26.2522 38.1082C26.2522 38.5164 25.8428 38.5987 25.5975 38.5987H25.1064ZM26.3339 40.2362C26.2062 40.2959 26.066 40.3241 25.9252 40.3186C25.1064 40.3186 24.9429 39.9092 24.9429 39.4175C24.9429 39.1722 25.0247 38.927 25.0247 38.7628H25.6793C26.1704 38.7628 26.7433 38.6817 26.7433 38.19C26.7433 37.7818 26.3339 37.5353 25.9252 37.5353C24.7788 37.5353 24.37 38.6823 24.37 39.4998C24.37 40.2368 24.7794 40.5644 25.434 40.5644C25.8428 40.5644 26.0887 40.4821 26.2522 40.4003L26.3339 40.2362ZM29.9353 39.7445C29.9353 39.1716 30.3447 37.7812 30.9994 37.7812C31.1629 37.7812 31.327 37.9441 31.327 38.1894C31.327 38.7623 30.7541 40.2362 30.1812 40.2362C30.0995 40.2362 29.9353 40.1539 29.9353 39.7445ZM31 39.9086C30.9182 39.991 30.9182 40.1539 30.9182 40.318C30.9182 40.3992 31 40.5633 31.1641 40.5633C31.4917 40.5633 31.9828 39.9904 32.1463 39.8263L32.0646 39.7439C31.901 39.908 31.6552 40.1533 31.4917 40.1533C31.4917 40.1533 31.4099 40.1533 31.4099 40.0709C31.4099 40.0709 31.4099 39.9898 31.4917 39.908L32.2287 36.1431L31.1646 36.2243V36.3884C31.4105 36.3884 31.574 36.3884 31.574 36.6336V36.8789L31.4105 37.8612C31.3288 37.6982 31.1647 37.5336 30.8376 37.5336C30.0195 37.5336 29.3642 39.171 29.3642 39.8257C29.3642 40.1533 29.446 40.5627 29.9371 40.5627C30.51 40.5627 30.9194 39.7433 31.0011 39.4981H31.0829L31 39.9086ZM33.4556 38.5987C33.5373 38.2711 33.7832 37.7806 34.2743 37.7806C34.4379 37.7806 34.602 37.9435 34.602 38.1082C34.602 38.5164 34.2743 38.5987 34.0285 38.5987H33.4556ZM34.6837 40.2362C34.602 40.3186 34.4379 40.3186 34.2743 40.3186C33.5374 40.3186 33.3738 39.9092 33.3738 39.4175C33.3738 39.1722 33.3738 38.927 33.4556 38.7628H34.1102C34.6014 38.7628 35.0925 38.6817 35.0925 38.19C35.0925 37.7818 34.7649 37.5353 34.3555 37.5353C33.2097 37.5353 32.8004 38.6823 32.8004 39.4998C32.8004 40.2368 33.2097 40.5644 33.7826 40.5644C34.1914 40.5644 34.519 40.4821 34.6831 40.4003L34.6837 40.2362ZM39.1033 39.8263C38.9398 39.9904 38.5304 40.5633 38.2028 40.5633C38.0393 40.5633 37.9575 40.4809 37.9575 40.318V39.9086L38.6121 36.8795V36.6342C38.6121 36.389 38.4486 36.389 38.121 36.389L38.2028 36.2249L39.185 36.1437L38.448 39.9086V40.0715C38.448 40.1539 38.448 40.1539 38.5298 40.1539C38.6116 40.1539 38.8574 39.9086 39.0209 39.7445L39.1033 39.8263ZM40.3314 37.6165C40.4949 37.5341 40.7408 37.2889 40.7408 37.0436C40.7408 36.8795 40.4949 36.9613 40.4949 36.6342C40.4949 36.4713 40.6584 36.3066 40.9043 36.3066C41.0678 36.3066 41.2319 36.4707 41.2319 36.716C41.2319 37.1254 40.7408 37.453 40.5773 37.6165H40.3314ZM42.5412 36.8795V36.6342C42.5412 36.389 42.3777 36.389 42.05 36.389L42.1318 36.2249L43.1958 36.1437L42.5412 39.254C42.787 38.6811 43.3593 37.5347 43.9328 37.5347C44.1787 37.5347 44.3422 37.6988 44.3422 37.9441C44.3422 38.0265 44.2604 38.1894 44.2604 38.3535L43.9328 39.9086C43.9328 39.991 43.851 40.0715 43.851 40.0715C43.851 40.1539 43.9328 40.1539 43.9328 40.1539C44.0963 40.1539 44.3422 39.9086 44.5057 39.7445L44.588 39.8269C44.4245 39.991 43.9334 40.5639 43.6058 40.5639C43.4423 40.5639 43.3599 40.4815 43.3599 40.3186C43.3599 40.1545 43.3599 39.991 43.4423 39.9092L43.7699 38.3541C43.7699 38.2717 43.8516 38.19 43.8516 38.1088C43.8489 38.0662 43.8307 38.0261 43.8005 37.9959C43.7703 37.9657 43.7301 37.9475 43.6875 37.9447C43.1964 37.9447 42.46 39.8275 42.2959 40.4821H41.8048L42.5412 36.8795ZM45.8973 39.6633C45.8973 39.0893 46.1432 37.7806 46.7978 37.7806C47.1254 37.7806 47.2066 38.0259 47.2066 38.4352C47.2066 39.0081 46.9607 40.3986 46.3061 40.3986C46.0608 40.3992 45.8973 40.1539 45.8973 39.6633ZM46.3067 40.5633C47.2889 40.5633 47.7801 39.4987 47.7801 38.6805C47.7801 38.0259 47.5342 37.5336 46.7978 37.5336C45.8156 37.5336 45.3244 38.6805 45.3244 39.4981C45.3244 40.0715 45.6521 40.5633 46.3067 40.5633ZM49.0082 38.2711C49.0082 38.1888 49.0899 38.1082 49.0899 38.0259L49.0082 37.9435C48.8447 37.9435 48.5988 38.1888 48.4353 38.3529H48.3535C48.5171 38.1076 49.0082 37.5336 49.3358 37.5336C49.4993 37.5336 49.5817 37.6977 49.5817 37.8612C49.5817 37.9435 49.5817 38.1076 49.4999 38.2705L49.4182 38.6799C49.5817 38.4346 49.9093 37.533 50.4004 37.533C50.5639 37.533 50.6463 37.6971 50.6463 37.8606C50.6463 38.0247 50.5645 38.1882 50.4004 38.1882C50.2363 38.1882 50.1546 38.107 50.0728 38.107C49.9093 38.107 49.4182 38.8428 49.0905 40.4803H48.5994L49.0082 38.2711ZM52.2002 39.8263C52.0367 39.9904 51.6273 40.5633 51.2997 40.5633C51.1362 40.5633 51.0545 40.4809 51.0545 40.318V39.9086L51.7091 36.8795V36.6342C51.7091 36.389 51.5456 36.389 51.218 36.389L51.2997 36.2249L52.282 36.1437L51.5456 39.9086V40.0715C51.5456 40.1539 51.5456 40.1539 51.6273 40.1539C51.7091 40.1539 51.955 39.9086 52.1185 39.7445L52.2002 39.8263ZM53.4283 39.6633C53.4283 39.0893 53.756 37.7806 54.4106 37.7806C54.6559 37.7806 54.8188 38.0259 54.8188 38.4352C54.8188 39.0081 54.5735 40.3986 53.9183 40.3986C53.6736 40.3992 53.4283 40.1539 53.4283 39.6633ZM53.9189 40.5633C54.8194 40.5633 55.3917 39.4987 55.3917 38.6805C55.3917 38.0259 55.0652 37.5336 54.4106 37.5336C53.4283 37.5336 52.9366 38.6805 52.9366 39.4981C52.9366 40.0715 53.1819 40.5633 53.9189 40.5633ZM56.621 39.7445C56.621 39.0899 57.1115 37.7812 57.6844 37.7812C57.7667 37.7812 58.012 37.8623 58.012 38.1894C58.012 38.7623 57.4391 40.2362 56.8662 40.2362C56.7021 40.2362 56.621 40.1539 56.621 39.7445ZM58.5843 37.6165H58.0938V37.8618C58.0114 37.6988 57.8485 37.5341 57.6032 37.5341C56.7021 37.5341 56.0469 39.1716 56.0469 39.8263C56.0469 40.1539 56.1293 40.5633 56.621 40.5633C57.2756 40.5633 57.6032 39.8263 57.6844 39.4987H57.7667L57.5215 40.5633C57.4391 40.8909 57.2762 41.6267 56.7845 41.6267C56.3751 41.6267 56.4569 41.1361 56.1298 41.1361C55.9669 41.1361 55.8022 41.2991 55.8022 41.4638C55.8022 41.709 56.1298 41.7914 56.5392 41.7914C57.6038 41.7914 57.8491 41.2185 58.012 40.5639L58.5843 37.6165ZM59.8942 38.5987C59.9765 38.2711 60.2218 37.7806 60.7135 37.7806C60.8764 37.7806 61.0411 37.9435 61.0411 38.1082C61.0411 38.5164 60.7135 38.5987 60.4682 38.5987H59.8942ZM61.1223 40.2362C61.0411 40.3186 60.877 40.3186 60.7141 40.3186C59.9771 40.3186 59.813 39.9092 59.813 39.4175C59.813 39.1722 59.813 38.927 59.8954 38.7628H60.55C61.0417 38.7628 61.5323 38.6817 61.5323 38.19C61.5323 37.7818 61.2046 37.5353 60.7953 37.5353C59.6495 37.5353 59.2401 38.6823 59.2401 39.4998C59.2401 40.2368 59.6495 40.5644 60.2224 40.5644C60.6318 40.5644 60.9594 40.4821 61.1229 40.4003L61.1223 40.2362ZM62.7592 38.2711V38.0259C62.7592 38.0259 62.7592 37.9435 62.6768 37.9435C62.5957 37.9435 62.2687 38.1888 62.104 38.3529H62.0228C62.2681 38.1076 62.6768 37.5336 63.0051 37.5336C63.168 37.5336 63.2503 37.6977 63.2503 37.8612C63.2503 37.9435 63.2503 38.1076 63.168 38.2705L63.0856 38.6799C63.2497 38.4346 63.5773 37.533 64.0679 37.533C64.232 37.533 64.3955 37.6971 64.3955 37.8606C64.3955 38.0247 64.2326 38.1882 64.0679 38.1882C63.905 38.1882 63.905 38.107 63.8226 38.107C63.6585 38.107 63.0856 38.8428 62.758 40.4803H62.2675L62.7592 38.2711ZM66.0342 39.8263C65.8701 39.9904 65.3795 40.5633 65.0519 40.5633C64.8878 40.5633 64.8066 40.4809 64.8066 40.318C64.8066 40.1539 64.8878 39.9904 64.8878 39.9086L65.2154 38.2711V37.9435C65.0525 37.9435 64.8072 38.1888 64.6425 38.3529H64.5614C64.7243 38.1076 65.2154 37.5336 65.5424 37.5336C65.6248 37.5336 65.7889 37.6977 65.7889 37.8612C65.7889 37.9435 65.7066 38.1076 65.7066 38.2705L65.3789 39.908C65.3789 39.9904 65.2966 40.0709 65.2966 40.0709C65.2966 40.1533 65.3789 40.1533 65.3789 40.1533C65.5419 40.1533 65.7883 39.908 65.9518 39.7439L66.0342 39.8263ZM65.2966 36.6342C65.2966 36.4713 65.4607 36.3066 65.706 36.3066C65.8689 36.3066 66.0336 36.4707 66.0336 36.6342C66.0336 36.7983 65.8695 36.9618 65.706 36.9618C65.4613 36.9613 65.2966 36.7983 65.2966 36.6342ZM67.4246 38.5987C67.4246 38.2711 67.6711 37.7806 68.1616 37.7806C68.4069 37.7806 68.571 37.9435 68.571 38.1082C68.571 38.5164 68.1616 38.5987 67.9163 38.5987H67.4246ZM68.6533 40.2362C68.5254 40.2959 68.385 40.3241 68.2439 40.3186C67.4246 40.3186 67.2617 39.9092 67.2617 39.4175C67.2617 39.1722 67.344 38.927 67.344 38.7628H67.9987C68.4892 38.7628 69.0621 38.6817 69.0621 38.19C69.0621 37.7818 68.6539 37.5353 68.2439 37.5353C67.0982 37.5353 66.6888 38.6823 66.6888 39.4998C66.6888 40.2368 67.0982 40.5644 67.7522 40.5644C68.1616 40.5644 68.4069 40.4821 68.5716 40.4003L68.6533 40.2362ZM72.2547 39.7445C72.2547 39.1716 72.6641 37.7812 73.3193 37.7812C73.4823 37.7812 73.6469 37.9441 73.6469 38.1894C73.6469 38.7623 73.0741 40.2362 72.5 40.2362C72.4188 40.2362 72.2547 40.1539 72.2547 39.7445ZM73.3187 39.9086C73.2364 39.991 73.2364 40.1539 73.2364 40.318C73.2364 40.3992 73.3187 40.5633 73.4817 40.5633C73.8093 40.5633 74.2187 39.9904 74.4639 39.8263L74.3816 39.7439C74.2187 39.908 73.891 40.1533 73.8087 40.1533C73.8087 40.1533 73.7275 40.1533 73.7275 40.0709C73.7275 40.0709 73.7275 39.9898 73.8087 39.908L74.5457 36.1431L73.4811 36.2243V36.3884C73.7275 36.3884 73.8904 36.3884 73.8904 36.6336V36.8789L73.7275 37.8612C73.6452 37.6982 73.4811 37.5336 73.1535 37.5336C72.3353 37.5336 71.6807 39.171 71.6807 39.8257C71.6807 40.1533 71.763 40.5627 72.2536 40.5627C72.8264 40.5627 73.2358 39.7433 73.3182 39.4981H73.4005L73.3187 39.9086ZM75.7744 38.5987C75.8567 38.2711 76.102 37.7806 76.5114 37.7806C76.7566 37.7806 76.9196 37.9435 76.9196 38.1082C76.9196 38.5164 76.5931 38.5987 76.3467 38.5987H75.7744ZM77.0019 40.2362C76.9196 40.3186 76.7566 40.3186 76.5937 40.3186C75.8567 40.3186 75.6926 39.9092 75.6926 39.4175C75.6926 39.1722 75.6926 38.927 75.775 38.7628H76.4296C76.9202 38.7628 77.4119 38.6817 77.4119 38.19C77.4119 37.7818 77.0843 37.5353 76.6749 37.5353C75.5291 37.5353 75.1198 38.6823 75.1198 39.4998C75.1198 40.2368 75.5291 40.5644 76.102 40.5644C76.5114 40.5644 76.839 40.4821 77.0025 40.4003L77.0019 40.2362ZM78.7218 39.991C78.7218 39.254 79.2946 37.8618 79.8675 37.8618C80.0316 37.8618 80.1128 38.1082 80.1128 38.3535C80.1128 39.0893 79.6222 40.3992 79.0494 40.3992C78.8035 40.3992 78.7218 40.1539 78.7218 39.991ZM77.2472 41.7914H78.8847V41.709C78.6394 41.709 78.3941 41.709 78.3941 41.3814C78.3941 41.2991 78.3941 41.2185 78.4765 41.1361L78.5576 40.318H78.64C78.7223 40.4809 78.8041 40.5633 79.1317 40.5633C80.0322 40.5633 80.6869 39.0893 80.6869 38.2711C80.6869 37.7806 80.4404 37.5341 80.1128 37.5341C79.5399 37.5341 79.0494 38.3535 78.967 38.5164L79.0494 38.2711V37.8618C79.0494 37.6988 78.967 37.5341 78.8041 37.5341C78.4765 37.5341 78.0671 38.1082 77.8218 38.3535H77.9848C78.0671 38.1894 78.3941 37.9441 78.4765 37.9441C78.5576 37.9441 78.5576 38.0265 78.5576 38.0265V38.2717L77.9848 41.1367C77.9024 41.5461 77.7395 41.7096 77.2478 41.7096L77.2472 41.7914ZM83.3048 39.1716C83.0596 39.9086 82.4867 40.5639 81.9949 40.5639C81.7497 40.5639 81.5868 40.3997 81.5868 40.0721C81.5868 39.991 81.6691 39.7445 81.6691 39.5816L81.9955 38.2717V37.9441C81.8326 37.9441 81.5874 38.1894 81.4227 38.3535H81.3403C81.5044 38.1082 81.995 37.5341 82.3226 37.5341C82.4867 37.5341 82.569 37.6982 82.569 37.8618C82.569 37.9441 82.4867 38.1082 82.4867 38.2711L82.1591 39.7439C82.1591 39.8263 82.0767 39.9904 82.0767 39.9904C82.0767 40.0715 82.1591 40.1533 82.2408 40.1533C82.649 40.1533 83.5495 38.7611 83.6319 37.6159H84.1236L83.6319 39.908V40.0709C83.6319 40.1533 83.6319 40.1533 83.7142 40.1533C83.7965 40.1533 84.1236 39.908 84.2871 39.7439L84.3694 39.8263C84.1242 39.9904 83.7148 40.5633 83.3872 40.5633C83.2243 40.5633 83.1419 40.4809 83.1419 40.318C83.1419 40.1539 83.1419 39.9904 83.2243 39.9086L83.3048 39.1716ZM86.4151 39.8263C86.1698 39.9904 85.7611 40.5633 85.434 40.5633C85.2699 40.5633 85.1876 40.4809 85.1876 40.318C85.1876 40.1539 85.1876 39.9904 85.2699 39.9086L85.5975 38.2711V38.0259C85.5975 38.0259 85.5975 37.9435 85.5152 37.9435C85.434 37.9435 85.1876 38.1888 85.0247 38.3529H84.9423C85.1064 38.1076 85.5969 37.5336 85.8428 37.5336C86.0069 37.5336 86.0881 37.6977 86.0881 37.8612V38.2705L85.7617 39.908C85.6793 39.9904 85.6793 40.0709 85.6793 40.0709C85.6793 40.1533 85.7617 40.1533 85.7617 40.1533C85.8428 40.1533 86.1698 39.908 86.3345 39.7439L86.4151 39.8263ZM85.6793 36.6342C85.6793 36.4713 85.8422 36.3066 86.0069 36.3066C86.2522 36.3066 86.4151 36.4707 86.4151 36.6342C86.4151 36.7983 86.2522 36.9618 86.0069 36.9618C85.8422 36.9613 85.6793 36.7983 85.6793 36.6342ZM88.8713 38.3535C88.8713 38.0259 88.7072 37.7806 88.2985 37.7806C88.052 37.7806 87.8067 37.9435 87.8067 38.2711C87.8067 38.844 88.8713 38.7617 88.8713 39.581C88.8713 40.318 88.2985 40.5633 87.5615 40.5633C87.2338 40.5633 86.9886 40.4809 86.9068 40.4809L86.9892 39.7439H87.1521C87.1521 39.9904 87.2344 40.3986 87.725 40.3986C88.0526 40.3986 88.3796 40.1533 88.3796 39.7439C88.3796 39.171 87.3162 39.171 87.3162 38.4352C87.3162 37.8612 87.8067 37.5341 88.3796 37.5341C88.7072 37.5341 88.9525 37.6165 89.1166 37.6982L89.0343 38.3529H88.8713V38.3535ZM91.2446 40.3992C91.7364 40.3992 91.8175 40.2362 91.9816 39.8263L92.391 37.7806V37.2889C92.391 37.126 92.3086 37.0436 92.0634 37.0436H91.8169V36.9613L92.718 36.716H93.0444L92.4716 39.8263C92.3904 39.9086 92.3904 39.9904 92.3904 40.0715C92.3904 40.318 92.6357 40.3992 92.7986 40.3992V40.4815H91.1623L91.2446 40.3992ZM94.8466 37.7806C94.8466 37.453 95.0096 36.8795 95.5824 36.8795C95.8289 36.8795 96.0742 37.0436 96.0742 37.4536C96.0742 37.9441 95.8289 38.3541 95.3372 38.3541C95.0101 38.3535 94.8466 38.1894 94.8466 37.7806ZM95.0102 40.5633C95.8295 40.5633 96.32 40.0715 96.32 39.3357C96.32 38.7617 95.9924 38.5987 95.7471 38.5164C96.2377 38.4352 96.6476 38.1888 96.6476 37.453C96.6476 36.8789 96.2383 36.6336 95.6654 36.6336C94.8472 36.6336 94.2743 37.043 94.2743 37.6982C94.2743 38.1888 94.5196 38.3529 94.7649 38.5164C94.2743 38.5164 93.8644 39.0081 93.8644 39.6633C93.8644 40.3186 94.2738 40.5633 95.0102 40.5633ZM94.4373 39.7445C94.4373 39.1716 94.6825 38.5987 95.1743 38.5987C95.5019 38.5987 95.8289 38.844 95.8289 39.2534C95.8289 39.8263 95.5824 40.318 95.0096 40.318C94.6014 40.318 94.4373 40.0715 94.4373 39.7445ZM99.4303 36.9613H98.2845C97.794 36.9613 97.7117 37.2065 97.6299 37.5341H97.467L97.6299 36.716H100.004V36.9613L97.7946 40.4809H97.2205L99.4303 36.9613ZM100.904 38.3535C100.985 38.2711 101.15 38.1894 101.559 38.1894C102.213 38.1894 102.54 38.5987 102.54 39.1716C102.54 39.8263 102.049 40.5639 100.985 40.5639C100.412 40.5639 100.004 40.3997 99.8391 40.3997L99.9214 40.1545C100.004 40.1545 100.331 40.3186 100.74 40.3186C101.477 40.3186 101.967 39.8269 101.967 39.1716C101.967 38.6811 101.639 38.4358 101.312 38.4358C100.904 38.4358 100.74 38.6811 100.658 38.7623H100.331L100.822 36.7166H102.786L102.704 36.9618H101.231L100.904 38.3535Z" fill="#F2F4F7"/>
</svg>
