<svg width="104" height="8" viewBox="0 0 104 8" fill="none" xmlns="http://www.w3.org/2000/svg">
<path d="M6.35681 2.95133C6.35681 3.32259 6.25801 3.48317 5.92461 3.48317H3.24633V1.0822H5.92433C6.2452 1.0822 6.35652 1.24334 6.35652 1.58955L6.35681 2.95133ZM8.9622 7.98361C8.62909 7.64395 8.493 7.34728 8.34495 6.96377L7.38177 4.52806C8.20914 4.41703 8.60404 3.98711 8.60404 3.22323V1.54058C8.60404 0.677051 8.11035 0.0746002 7.07286 0.0746002H0.782715C0.85674 0.345361 0.930765 0.591068 0.930765 1.08248V6.96377C0.930765 7.45803 0.85674 7.70545 0.782715 7.98361H3.39438C3.32035 7.70545 3.24633 7.45832 3.24633 6.96377V4.49105H4.97453L6.33204 7.98361H8.9622ZM10.1922 7.98361C10.2662 7.70573 10.3402 7.4586 10.3402 6.96491V1.08761C10.3402 0.59363 10.2662 0.346785 10.1922 0.0746002H12.8035C12.7295 0.3465 12.6555 0.59363 12.6555 1.08761V6.96491C12.6555 7.45832 12.7295 7.70573 12.8035 7.98361H10.1922ZM20.5585 7.98532H15.9419C14.8828 7.98532 14.3902 7.3954 14.3902 6.43279V1.62742C14.3902 0.664808 14.8828 0.0746002 15.9419 0.0746002H20.5582L20.7558 1.26811C20.4469 1.14426 20.126 1.0822 19.6321 1.0822H17.1249C16.8658 1.0822 16.7052 1.18184 16.7052 1.50357V6.55664C16.7052 6.87836 16.8655 6.97801 17.1249 6.97801H19.6318C20.1258 6.97801 20.4466 6.91566 20.7555 6.79181L20.5585 7.98532ZM27.6023 7.98361C27.6766 7.70545 27.7506 7.45832 27.7506 6.96377V4.49105H24.6208V6.96377C24.6208 7.45803 24.6951 7.70545 24.7694 7.98361H22.1572C22.2312 7.70545 22.3052 7.45832 22.3052 6.96377V1.08761C22.3052 0.59363 22.2312 0.346785 22.1572 0.0746002H24.7694C24.6954 0.346785 24.6208 0.59363 24.6208 1.08761V3.48317H27.7503V1.08761C27.7503 0.59363 27.6763 0.346785 27.602 0.0746002H30.214C30.1399 0.346785 30.0659 0.59363 30.0659 1.08761V6.96377C30.0659 7.45803 30.1399 7.70545 30.214 7.98361H27.6023ZM36.739 4.72651H34.0718L35.3929 1.73248L36.739 4.72651ZM40.8388 7.98361C40.6165 7.7809 40.3941 7.33589 40.2213 6.96662L37.0849 0.0746002H34.504L34.8374 0.594769L31.9723 6.96662C31.8488 7.24991 31.6016 7.64424 31.367 7.98361H32.886C32.886 7.5947 32.9725 7.20065 33.071 6.96662L33.6023 5.73439H37.1954L37.7392 6.96662C37.8747 7.27411 37.9487 7.58245 37.9487 7.7809C37.9487 7.85692 37.9487 7.90731 37.9242 7.98361H40.8388ZM47.5623 2.95133C47.5623 3.32259 47.4638 3.48317 47.1301 3.48317H44.4521V1.0822H47.1301C47.4513 1.0822 47.5623 1.24334 47.5623 1.58955V2.95133ZM50.168 7.98361C49.8343 7.64395 49.6988 7.34728 49.5502 6.96377L48.587 4.52806C49.4144 4.41703 49.8095 3.98711 49.8095 3.22323V1.54058C49.8095 0.677051 49.3156 0.0746002 48.2784 0.0746002H41.9885C42.0625 0.345361 42.1366 0.591068 42.1366 1.08248V6.96377C42.1366 7.45803 42.0625 7.70545 41.9885 7.98361H44.6002C44.5261 7.70545 44.4521 7.45832 44.4521 6.96377V4.49105H46.1798L47.5375 7.98361H50.168ZM57.0557 6.55607C57.0557 6.87865 56.8943 6.97773 56.6344 6.97773H53.8613V1.08248L56.6344 1.07052C56.8943 1.07052 57.0557 1.1696 57.0557 1.4919V6.55607ZM59.371 6.43165V1.6166C59.371 0.65769 58.8785 0.0748849 57.8193 0.0748849H51.3979C51.472 0.342229 51.546 0.585089 51.546 1.07052V6.97829C51.546 7.46971 51.472 7.71513 51.3979 7.98589H57.8191C58.8782 7.98561 59.3707 7.39597 59.3707 6.43193L59.371 6.43165ZM72.0416 7.9224C72.1153 7.64452 72.1896 7.39768 72.1896 6.9037V1.14967H72.1648L69.4601 7.92212H67.8552L65.2002 1.14967H65.1754V6.9037C65.1754 7.39739 65.2498 7.64452 65.3243 7.9224H63.9594C64.0338 7.64452 64.1083 7.39768 64.1083 6.9037V1.02668C64.1083 0.532702 64.0338 0.285572 63.9594 0.0139566H67.0773L69.3371 5.75574L71.6344 0.0136719H74.5857C74.5112 0.285287 74.4374 0.532417 74.4374 1.02611V6.9037C74.4374 7.39739 74.5114 7.64452 74.5855 7.9224H72.0416ZM76.4418 7.9224C76.5155 7.64452 76.5898 7.39768 76.5898 6.9037V1.02668C76.5898 0.532702 76.5155 0.285572 76.4418 0.0136719H79.0529C78.9786 0.285287 78.9048 0.532702 78.9048 1.02668V6.9037C78.9048 7.39739 78.9786 7.64452 79.0529 7.9224H76.4418ZM87.4009 7.92411H80.9237C80.9983 7.65392 81.0726 7.40793 81.0726 6.91623V1.02867C81.0726 0.533841 80.9983 0.286426 80.9237 0.0139566H83.536C83.4614 0.286426 83.3871 0.533841 83.3871 1.02867V6.91708H86.4375C86.9687 6.91708 87.3018 6.84306 87.5985 6.73145L87.4009 7.92411ZM95.2299 7.92411H88.7527C88.827 7.65392 88.9008 7.40793 88.9008 6.91623V1.02867C88.9008 0.533841 88.827 0.286426 88.7527 0.0139566H91.3641C91.2901 0.286426 91.2161 0.533841 91.2161 1.02867V6.91708H94.2662C94.7977 6.91708 95.1306 6.84306 95.4272 6.73145L95.2299 7.92411ZM103.058 7.92411H96.5817C96.6555 7.65392 96.7298 7.40793 96.7298 6.91623V1.02155C96.7298 0.529855 96.6555 0.284148 96.5817 0.0136719H103.058L103.256 1.2069C102.96 1.09558 102.626 1.02098 102.095 1.02098H99.0448V3.42224H101.773C102.206 3.42224 102.601 3.34822 102.873 3.23661V4.61632C102.601 4.50443 102.207 4.42955 101.773 4.42955H99.0448V6.91651H102.095C102.626 6.91651 102.96 6.84163 103.256 6.72974L103.058 7.92411Z" fill="#F2F4F7"/>
</svg>
