<svg width="24" height="25" viewBox="0 0 24 25" fill="none" xmlns="http://www.w3.org/2000/svg">
<path d="M23.7609 7.38633C23.7609 7.38633 23.5266 5.73164 22.8047 5.00508C21.8906 4.04883 20.8688 4.04414 20.4 3.98789C17.0438 3.74414 12.0047 3.74414 12.0047 3.74414H11.9953C11.9953 3.74414 6.95625 3.74414 3.6 3.98789C3.13125 4.04414 2.10938 4.04883 1.19531 5.00508C0.473438 5.73164 0.24375 7.38633 0.24375 7.38633C0.24375 7.38633 0 9.33164 0 11.2723V13.091C0 15.0316 0.239062 16.977 0.239062 16.977C0.239062 16.977 0.473437 18.6316 1.19062 19.3582C2.10469 20.3145 3.30469 20.2816 3.83906 20.3848C5.76094 20.5676 12 20.6238 12 20.6238C12 20.6238 17.0438 20.6145 20.4 20.3754C20.8688 20.3191 21.8906 20.3145 22.8047 19.3582C23.5266 18.6316 23.7609 16.977 23.7609 16.977C23.7609 16.977 24 15.0363 24 13.091V11.2723C24 9.33164 23.7609 7.38633 23.7609 7.38633ZM9.52031 15.2988V8.55352L16.0031 11.9379L9.52031 15.2988Z" fill="#061513"/>
</svg>
