<svg width="30" height="8" viewBox="0 0 30 8" fill="none" xmlns="http://www.w3.org/2000/svg">
<path d="M28.9414 5.28905C28.8284 5.28542 28.7157 5.30451 28.6102 5.34519C28.5046 5.38587 28.4083 5.44732 28.3269 5.5259C28.2455 5.60447 28.1807 5.69858 28.1364 5.80264C28.092 5.9067 28.069 6.01861 28.0686 6.13173C28.0683 6.24486 28.0906 6.3569 28.1344 6.46123C28.1781 6.56556 28.2423 6.66005 28.3233 6.73911C28.4042 6.81817 28.5001 6.88019 28.6054 6.92151C28.7107 6.96282 28.8233 6.98259 28.9364 6.97963C29.1563 6.97389 29.3653 6.88265 29.5191 6.72529C29.6729 6.56792 29.7593 6.35682 29.7599 6.13681C29.7606 5.91679 29.6755 5.70518 29.5226 5.5469C29.3698 5.38861 29.1613 5.29612 28.9414 5.28905ZM26.1719 4.63326C26.1828 4.39268 26.1221 4.15426 25.9976 3.94816C25.873 3.74206 25.6901 3.57755 25.472 3.47542C25.2539 3.3733 25.0104 3.33816 24.7723 3.37445C24.5342 3.41073 24.3123 3.51682 24.1345 3.67928C23.9567 3.84174 23.8311 4.05328 23.7736 4.28713C23.7161 4.52099 23.7292 4.76665 23.8113 4.99305C23.8934 5.21944 24.0408 5.41639 24.2349 5.55899C24.429 5.70158 24.661 5.78341 24.9016 5.79413L24.9595 5.79558C25.6146 5.80862 26.1566 5.28833 26.1719 4.63326ZM26.1762 2.37239H27.5168V6.89268H26.1762V6.60427C25.7852 6.87391 25.3215 7.01822 24.8465 7.01804C24.2213 7.00714 23.6254 6.75113 23.1871 6.30515C22.7489 5.85917 22.5033 5.2589 22.5033 4.63362C22.5033 4.00833 22.7489 3.40806 23.1871 2.96208C23.6254 2.51611 24.2213 2.2601 24.8465 2.2492C25.3215 2.24842 25.7855 2.39278 26.1762 2.66297V2.37311V2.37239ZM15.4443 2.96079V2.37311H14.0704V6.89268H15.4472V4.78181C15.4472 4.06949 16.2117 3.68688 16.7422 3.68688H16.7581V2.37239C16.5092 2.36607 16.2621 2.41557 16.0349 2.51727C15.8077 2.61896 15.6061 2.77027 15.445 2.96007L15.4443 2.96079ZM12.0248 4.63253C12.0357 4.39195 11.975 4.15354 11.8505 3.94744C11.7259 3.74134 11.543 3.57682 11.3249 3.4747C11.1068 3.37258 10.8633 3.33744 10.6252 3.37372C10.3871 3.41001 10.1652 3.5161 9.98738 3.67856C9.8096 3.84102 9.68401 4.05256 9.62648 4.28641C9.56895 4.52027 9.58208 4.76593 9.66419 4.99232C9.74631 5.21872 9.89373 5.41567 10.0878 5.55826C10.2819 5.70086 10.5139 5.78269 10.7545 5.7934L10.8124 5.79485C11.4675 5.80789 12.0095 5.2876 12.0248 4.63253ZM12.0291 2.37166H13.3704V6.89195H12.0291V6.60355C11.6381 6.87319 11.1743 7.0175 10.6994 7.01732C10.0742 7.00642 9.47831 6.75041 9.04004 6.30443C8.60177 5.85845 8.35618 5.25818 8.35618 4.63289C8.35618 4.00761 8.60177 3.40734 9.04004 2.96136C9.47831 2.51538 10.0742 2.25937 10.6994 2.24847C11.1744 2.24769 11.6384 2.39206 12.0291 2.66224V2.37166ZM20.1001 2.25065C19.8359 2.23526 19.5718 2.28465 19.331 2.39452C19.0902 2.50439 18.8798 2.67142 18.7182 2.88108V2.37239H17.3835V6.89195H18.7349V4.51586C18.7238 4.38005 18.7421 4.24344 18.7885 4.11532C18.8349 3.9872 18.9083 3.87056 19.0038 3.77335C19.0993 3.67614 19.2146 3.60063 19.3419 3.55195C19.4692 3.50327 19.6054 3.48256 19.7414 3.49123C20.3298 3.49123 20.6704 3.8463 20.6704 4.50572V6.88978H22.0088V4.01731C22.0079 3.77334 21.9568 3.53217 21.8587 3.3088C21.7606 3.08542 21.6175 2.88461 21.4385 2.71885C21.2595 2.55309 21.0483 2.42592 20.8181 2.34525C20.5878 2.26458 20.3434 2.23286 20.1001 2.25065ZM6.38273 6.89123H7.78635V0.35717H6.38273V6.89123ZM0.216064 6.89123H1.7023V0.35717H0.216789V6.89195L0.216064 6.89123ZM5.41534 0.356445C5.41917 1.0449 5.28682 1.72731 5.02591 2.36442C4.765 3.00153 4.38067 3.58075 3.89505 4.06876L5.9494 6.89558H4.11317L1.88128 3.82239L2.45809 3.38688C2.92738 3.03387 3.30758 2.57596 3.56829 2.04976C3.829 1.52357 3.96298 0.943676 3.95954 0.356445H5.41534Z" fill="white"/>
</svg>
