<svg width="100" height="20" viewBox="0 0 100 20" fill="none" xmlns="http://www.w3.org/2000/svg">
<path d="M19.2292 0.75H0.729248V19.25H19.2292V0.75Z" fill="#061513"/>
<path d="M39.2708 0.75H20.7708V19.25H39.2708V0.75Z" fill="#061513"/>
<path d="M59.3125 0.75H40.8125V19.25H59.3125V0.75Z" fill="#061513"/>
<path d="M79.3542 0.75H60.8542V19.25H79.3542V0.75Z" fill="#061513"/>
<path d="M99.3958 0.75H80.8958V19.25H99.3958V0.75Z" fill="#061513"/>
<path d="M9.97915 13.2184L12.7927 12.5054L13.9682 16.1283L9.97915 13.2184ZM16.4541 8.53561H11.5015L9.97915 3.87207L8.45675 8.53561H3.50415L7.51248 11.4262L5.99009 16.0898L9.99842 13.1992L12.4651 11.4262L16.4541 8.53561Z" fill="#61CCAC"/>
<path d="M30.0209 13.2184L32.8344 12.5054L34.01 16.1283L30.0209 13.2184ZM36.4959 8.53561H31.5433L30.0209 3.87207L28.4985 8.53561H23.5459L27.5542 11.4262L26.0318 16.0898L30.0402 13.1992L32.5068 11.4262L36.4959 8.53561Z" fill="#61CCAC"/>
<path d="M50.0626 13.2184L52.8762 12.5054L54.0517 16.1283L50.0626 13.2184ZM56.5376 8.53561H51.585L50.0626 3.87207L48.5403 8.53561H43.5876L47.596 11.4262L46.0736 16.0898L50.0819 13.1992L52.5486 11.4262L56.5376 8.53561Z" fill="#61CCAC"/>
<path d="M70.1042 13.2184L72.9177 12.5054L74.0932 16.1283L70.1042 13.2184ZM76.5792 8.53561H71.6265L70.1042 3.87207L68.5818 8.53561H63.6292L67.6375 11.4262L66.1151 16.0898L70.1234 13.1992L72.5901 11.4262L76.5792 8.53561Z" fill="#61CCAC"/>
<path d="M90.1459 13.2184L92.9594 12.5054L94.135 16.1283L90.1459 13.2184ZM96.6209 8.53561H91.6683L90.1459 3.87207L88.6235 8.53561H83.6709L87.6792 11.4262L86.1568 16.0898L90.1652 13.1992L92.6318 11.4262L96.6209 8.53561Z" fill="#61CCAC"/>
</svg>
