<svg width="25" height="25" viewBox="0 0 25 25" fill="none" xmlns="http://www.w3.org/2000/svg">
<path d="M0.5 24.1865L2.187 18.0235C1.146 16.2195 0.599 14.1745 0.6 12.0775C0.603 5.52152 5.938 0.186523 12.493 0.186523C15.674 0.187523 18.66 1.42652 20.906 3.67452C23.151 5.92252 24.387 8.91052 24.386 12.0885C24.383 18.6455 19.048 23.9805 12.493 23.9805C10.503 23.9795 8.542 23.4805 6.805 22.5325L0.5 24.1865ZM7.097 20.3795C8.773 21.3745 10.373 21.9705 12.489 21.9715C17.937 21.9715 22.375 17.5375 22.378 12.0865C22.38 6.62452 17.963 2.19652 12.497 2.19452C7.045 2.19452 2.61 6.62852 2.608 12.0785C2.607 14.3035 3.259 15.9695 4.354 17.7125L3.355 21.3605L7.097 20.3795ZM18.484 14.9155C18.41 14.7915 18.212 14.7175 17.914 14.5685C17.617 14.4195 16.156 13.7005 15.883 13.6015C15.611 13.5025 15.413 13.4525 15.214 13.7505C15.016 14.0475 14.446 14.7175 14.273 14.9155C14.1 15.1135 13.926 15.1385 13.629 14.9895C13.332 14.8405 12.374 14.5275 11.239 13.5145C10.356 12.7265 9.759 11.7535 9.586 11.4555C9.413 11.1585 9.568 10.9975 9.716 10.8495C9.85 10.7165 10.013 10.5025 10.162 10.3285C10.313 10.1565 10.362 10.0325 10.462 9.83352C10.561 9.63552 10.512 9.46152 10.437 9.31252C10.362 9.16452 9.768 7.70152 9.521 7.10652C9.279 6.52752 9.034 6.60552 8.852 6.59652L8.282 6.58652C8.084 6.58652 7.762 6.66052 7.49 6.95852C7.218 7.25652 6.45 7.97452 6.45 9.43752C6.45 10.9005 7.515 12.3135 7.663 12.5115C7.812 12.7095 9.758 15.7115 12.739 16.9985C13.448 17.3045 14.002 17.4875 14.433 17.6245C15.145 17.8505 15.793 17.8185 16.305 17.7425C16.876 17.6575 18.063 17.0235 18.311 16.3295C18.559 15.6345 18.559 15.0395 18.484 14.9155Z" fill="#61CCAC"/>
</svg>
