<svg width="22" height="30" viewBox="0 0 22 30" fill="none" xmlns="http://www.w3.org/2000/svg">
<path d="M21.4792 15C21.4792 12.6196 20.587 10.444 19.12 8.78895C19.1173 8.77863 19.1149 8.76832 19.1114 8.75807L17.9189 5.18033C17.8038 4.83522 17.5642 4.55895 17.2605 4.39248V1.40625C17.2605 0.630879 16.6296 0 15.8542 0H8.35425C7.57888 0 6.948 0.630879 6.948 1.40625V4.39242C6.64425 4.55895 6.40466 4.83522 6.28964 5.18033L5.09708 8.75807C5.09368 8.76832 5.09116 8.77863 5.08847 8.78895C4.22515 9.76301 3.56081 10.9172 3.16044 12.1875H2.2605C1.48507 12.1875 0.854248 12.8183 0.854248 13.5938V16.4062C0.854248 17.1817 1.48507 17.8125 2.2605 17.8125H3.16044C3.56081 19.0829 4.22521 20.2372 5.08858 21.2113C5.09128 21.2215 5.09374 21.2318 5.09714 21.242L6.2897 24.8197C6.40472 25.1648 6.64419 25.4411 6.94794 25.6076V28.5938C6.94794 29.3691 7.57882 30 8.35419 30H15.8542C16.6296 30 17.2604 29.3691 17.2604 28.5938V25.6076C17.5643 25.4411 17.8039 25.1648 17.9189 24.8197L19.1115 21.2419C19.115 21.2316 19.1175 21.2212 19.1202 21.2108C20.5871 19.5558 21.4792 17.3803 21.4792 15ZM7.17897 5.47682C7.2429 5.2851 7.42161 5.15625 7.6237 5.15625H13.5103C13.7692 5.15625 13.9791 4.94637 13.9791 4.6875C13.9791 4.42863 13.7692 4.21875 13.5103 4.21875H7.8855V1.40625C7.8855 1.14779 8.09579 0.9375 8.35425 0.9375H15.8542C16.1127 0.9375 16.323 1.14779 16.323 1.40625V4.21875H15.3856C15.1267 4.21875 14.9168 4.42863 14.9168 4.6875C14.9168 4.94637 15.1267 5.15625 15.3856 5.15625H16.5848C16.7869 5.15625 16.9656 5.28504 17.0295 5.47676L17.6975 7.4809C16.1351 6.31559 14.1988 5.625 12.1042 5.625C10.0097 5.625 8.07341 6.31559 6.51095 7.4809L7.17897 5.47682ZM2.2605 16.875C2.00204 16.875 1.79175 16.6647 1.79175 16.4062V13.5938C1.79175 13.3353 2.00204 13.125 2.2605 13.125H2.91774C2.79423 13.731 2.72925 14.358 2.72925 15C2.72925 15.642 2.79423 16.269 2.91774 16.875H2.2605ZM12.1042 6.5625C16.7567 6.5625 20.5417 10.3475 20.5417 15C20.5417 19.6525 16.7567 23.4375 12.1042 23.4375C7.45179 23.4375 3.66675 19.6525 3.66675 15C3.66675 10.3475 7.45179 6.5625 12.1042 6.5625ZM17.0296 24.5232C16.9657 24.715 16.7869 24.8438 16.5849 24.8438H15.3857C15.1268 24.8438 14.9169 25.0536 14.9169 25.3125C14.9169 25.5714 15.1268 25.7812 15.3857 25.7812H16.323V28.5938C16.323 28.8522 16.1127 29.0625 15.8542 29.0625H8.35425C8.09579 29.0625 7.8855 28.8522 7.8855 28.5938V25.7812H13.5104C13.7693 25.7812 13.9792 25.5714 13.9792 25.3125C13.9792 25.0536 13.7693 24.8438 13.5104 24.8438H7.62382C7.42173 24.8438 7.24302 24.715 7.17909 24.5232L6.51106 22.5192C8.07353 23.6844 10.0098 24.375 12.1042 24.375C14.1989 24.375 16.1352 23.6844 17.6977 22.519L17.0296 24.5232Z" fill="#061513"/>
<path d="M12.1042 22.5C16.2398 22.5 19.6042 19.1355 19.6042 15C19.6042 13.3617 19.0855 11.8052 18.1039 10.4988C17.9484 10.2919 17.6545 10.2502 17.4475 10.4057C17.2406 10.5612 17.1989 10.855 17.3544 11.062C18.1188 12.0793 18.5613 13.2705 18.6495 14.5312H18.198C17.9391 14.5312 17.7292 14.7411 17.7292 15C17.7292 15.2589 17.9391 15.4688 18.198 15.4688H18.6498C18.4196 18.7145 15.8187 21.3154 12.573 21.5456V21.0938C12.573 20.8349 12.3631 20.625 12.1042 20.625C11.8454 20.625 11.6355 20.8349 11.6355 21.0938V21.5456C8.38976 21.3154 5.7889 18.7145 5.55868 15.4688H6.0105C6.26937 15.4688 6.47925 15.2589 6.47925 15C6.47925 14.7411 6.26937 14.5312 6.0105 14.5312H5.55868C5.7889 11.2855 8.38976 8.68465 11.6355 8.45443V8.90625C11.6355 9.16512 11.8454 9.375 12.1042 9.375C12.3631 9.375 12.573 9.16512 12.573 8.90625V8.45479C13.8335 8.54285 15.0244 8.98529 16.0416 9.74936C16.2485 9.90475 16.5424 9.86314 16.6979 9.65607C16.8533 9.44906 16.8116 9.15527 16.6046 8.99977C15.2984 8.01861 13.7422 7.5 12.1042 7.5C7.9687 7.5 4.60425 10.8645 4.60425 15C4.60425 19.1355 7.9687 22.5 12.1042 22.5Z" fill="#061513"/>
<path d="M12.1042 10.3125C11.8454 10.3125 11.6355 10.5224 11.6355 10.7812V15C11.6355 15.0039 11.636 15.0077 11.6361 15.0116C11.6363 15.0211 11.6367 15.0306 11.6375 15.0401C11.6381 15.0465 11.6388 15.0527 11.6397 15.059C11.6408 15.0678 11.6421 15.0765 11.6436 15.0853C11.6449 15.0923 11.6464 15.0992 11.648 15.1061C11.6499 15.1138 11.6518 15.1215 11.654 15.1292C11.6562 15.1369 11.6586 15.1444 11.6612 15.1519C11.6635 15.1586 11.6659 15.1653 11.6685 15.172C11.6718 15.1801 11.6753 15.1881 11.6789 15.1961C11.6817 15.202 11.6844 15.2078 11.6874 15.2136C11.6917 15.222 11.6963 15.23 11.701 15.2381C11.7031 15.2415 11.7047 15.2451 11.7068 15.2485L14.0506 18.9985C14.1395 19.1408 14.2923 19.2189 14.4485 19.2189C14.5334 19.2189 14.6193 19.1958 14.6965 19.1476C14.916 19.0103 14.9827 18.7212 14.8456 18.5016L12.573 14.8655V10.7812C12.573 10.5224 12.3631 10.3125 12.1042 10.3125Z" fill="#061513"/>
</svg>
