<svg width="24" height="25" viewBox="0 0 24 25" fill="none" xmlns="http://www.w3.org/2000/svg">
<path d="M4.75 8.18652H7.25" stroke="white" stroke-width="1.5" stroke-linecap="round" stroke-linejoin="round"/>
<path d="M12.75 8.18652H19.25" stroke="white" stroke-width="1.5" stroke-linecap="round" stroke-linejoin="round"/>
<path d="M4.75 16.1865H12.25" stroke="white" stroke-width="1.5" stroke-linecap="round" stroke-linejoin="round"/>
<path d="M17.75 16.1865H19.25" stroke="white" stroke-width="1.5" stroke-linecap="round" stroke-linejoin="round"/>
<path d="M10 10.4365C11.2426 10.4365 12.25 9.42916 12.25 8.18652C12.25 6.94388 11.2426 5.93652 10 5.93652C8.75736 5.93652 7.75 6.94388 7.75 8.18652C7.75 9.42916 8.75736 10.4365 10 10.4365Z" stroke="white" stroke-width="1.5" stroke-linecap="round" stroke-linejoin="round"/>
<path d="M15 18.4365C16.2426 18.4365 17.25 17.4292 17.25 16.1865C17.25 14.9439 16.2426 13.9365 15 13.9365C13.7574 13.9365 12.75 14.9439 12.75 16.1865C12.75 17.4292 13.7574 18.4365 15 18.4365Z" stroke="white" stroke-width="1.5" stroke-linecap="round" stroke-linejoin="round"/>
</svg>
