<svg width="110" height="48" viewBox="0 0 110 48" fill="none" xmlns="http://www.w3.org/2000/svg">
<path d="M55.1653 0C55.7115 0.036421 56.2577 0.109263 56.8039 0.145684C60.1175 0.509894 63.2854 1.42042 66.1984 2.98652C72.5342 6.37368 76.9037 11.4726 79.1977 18.2833C80.0716 20.8328 80.4721 23.4551 80.5086 26.1503C80.5086 26.2231 80.5086 26.2596 80.5086 26.3324C78.9064 26.3324 77.3406 26.3324 75.7385 26.3324C75.8113 26.0046 76.0662 25.8225 76.4303 25.8225C77.3407 25.8225 78.251 25.8225 79.1613 25.8225C79.2705 25.8225 79.3433 25.8225 79.489 25.8225C79.4526 25.3126 79.4526 24.8391 79.4162 24.3657C79.1249 24.4021 78.9064 24.4385 78.6515 24.4385C78.3238 24.4749 78.0689 24.2928 78.0325 24.0014C77.9961 23.7101 78.1781 23.4916 78.5423 23.4551C78.7972 23.4187 79.052 23.3823 79.3433 23.3459C79.2705 22.7996 79.1613 22.2532 79.0885 21.7069C78.8336 21.7433 78.6151 21.8162 78.3602 21.8526C77.9961 21.9254 77.7048 21.7798 77.6684 21.4884C77.5955 21.1606 77.7776 20.9421 78.1417 20.8692C78.3966 20.8328 78.6151 20.76 78.87 20.7236C78.7243 20.1772 78.5787 19.6673 78.433 19.121C78.1781 19.1939 77.9233 19.3031 77.7048 19.376C77.3771 19.4852 77.0858 19.3396 77.0129 19.0482C76.9401 18.7932 77.0858 18.5383 77.4135 18.429C77.6684 18.3562 77.8868 18.2833 78.1417 18.1741C77.9233 17.6642 77.7412 17.1543 77.5591 16.608C77.3042 16.7172 77.0858 16.8265 76.8309 16.8993C76.5032 17.045 76.2119 16.9358 76.1026 16.6808C75.9934 16.3895 76.1026 16.1345 76.4303 15.9888C76.6488 15.8796 76.8673 15.7703 77.1222 15.661C76.9037 15.224 76.6852 14.7869 76.4667 14.3499C75.8113 14.7505 75.1559 15.1147 74.5005 15.4789C74.282 15.6246 74.0271 15.7703 73.8086 15.8796C73.4445 16.0617 73.044 15.9888 72.8619 15.6246C72.6434 15.2604 72.7527 14.8598 73.1168 14.6412C73.9179 14.1678 74.7189 13.6943 75.5564 13.2208C75.6293 13.1844 75.7021 13.148 75.8113 13.0751C75.5564 12.6745 75.3015 12.2739 75.0102 11.8368C74.7918 11.9825 74.5733 12.1282 74.3912 12.2739C74.0999 12.456 73.8086 12.456 73.6266 12.201C73.4445 11.9461 73.5173 11.6911 73.8086 11.4726C74.0271 11.3269 74.2092 11.1812 74.4276 10.9991C74.0635 10.5621 73.7358 10.1615 73.3717 9.68799C73.1896 9.87009 73.0075 10.0158 72.8255 10.1979C72.5706 10.4164 72.2429 10.4528 72.0608 10.2343C71.8423 10.0158 71.8787 9.72441 72.17 9.46946C72.3521 9.32378 72.5342 9.14167 72.7162 8.99599C72.3157 8.59536 71.9152 8.23115 71.5146 7.83052C71.369 8.01262 71.1869 8.19473 71.0048 8.37683C70.75 8.63178 70.4587 8.6682 70.2402 8.44967C70.0217 8.26757 70.0581 7.93978 70.2766 7.68483C70.4222 7.50273 70.6043 7.32062 70.7864 7.1021C70.3494 6.73789 69.9489 6.4101 69.5119 6.04589C69.3663 6.26441 69.2206 6.44652 69.075 6.66504C68.8565 6.95641 68.5652 7.02925 68.3467 6.84715C68.0918 6.66504 68.0554 6.37368 68.2739 6.08231C68.4195 5.9002 68.5652 5.7181 68.7108 5.49957C68.4924 5.35389 68.3103 5.2082 68.0918 5.09894C67.9098 4.95326 67.6913 4.84399 67.4728 4.69831C67.4 4.80757 67.3636 4.88041 67.3272 4.95326C66.8902 5.7181 66.4533 6.48294 65.9799 7.2842C65.725 7.72125 65.3245 7.86694 64.9603 7.64841C64.5962 7.42989 64.5234 7.02925 64.7783 6.5922C65.2152 5.82736 65.6886 5.0261 66.1255 4.26126C66.162 4.18842 66.1984 4.11557 66.2712 4.00631C65.8342 3.78779 65.4337 3.56926 64.9603 3.35073C64.8511 3.60568 64.7419 3.82421 64.6326 4.04273C64.487 4.37052 64.1957 4.51621 63.9044 4.37052C63.6495 4.26126 63.5767 3.96989 63.7223 3.6421C63.8315 3.42357 63.9044 3.20505 64.0136 2.9501C63.5038 2.73158 62.9941 2.54947 62.4479 2.36737C62.375 2.62231 62.2658 2.87726 62.193 3.13221C62.0837 3.46 61.8288 3.60568 61.5375 3.49642C61.2462 3.38715 61.137 3.13221 61.2462 2.80442C61.3191 2.54947 61.3919 2.33094 61.5011 2.03958C60.9549 1.89389 60.4452 1.74821 59.899 1.60252C59.8262 1.85747 59.7897 2.11242 59.7169 2.36737C59.6441 2.69515 59.3892 2.91368 59.0979 2.84084C58.8066 2.768 58.6609 2.51305 58.7338 2.14884C58.7702 1.89389 58.843 1.67537 58.8794 1.384C58.3332 1.31116 57.787 1.20189 57.2409 1.12905C57.2044 1.42042 57.168 1.67537 57.1316 1.93031C57.0952 2.29452 56.8767 2.47663 56.549 2.40379C56.2577 2.36737 56.1121 2.11242 56.1485 1.78463C56.1485 1.67537 56.1849 1.52968 56.1849 1.42042C56.1849 1.31116 56.2213 1.20189 56.2213 1.01979C55.7479 0.983367 55.2746 0.946946 54.7648 0.946946C54.7648 1.05621 54.7648 1.16547 54.7648 1.23831C54.7648 2.14884 54.7648 3.05936 54.7648 4.00631C54.7648 4.51621 54.3278 4.88042 53.8545 4.73473C53.5268 4.62547 53.3811 4.37052 53.3811 3.96989C53.3811 3.05936 53.3811 2.18526 53.3811 1.27474C53.3811 1.16547 53.3811 1.09263 53.3811 0.983367C52.8713 1.01979 52.398 1.01979 51.9246 1.05621C51.961 1.31116 51.961 1.5661 51.9974 1.78463C52.0338 2.14884 51.8882 2.40379 51.5605 2.44021C51.1964 2.51305 51.0143 2.33094 50.9415 1.96673C50.905 1.74821 50.905 1.49326 50.8686 1.23831C50.3224 1.31116 49.7763 1.42042 49.2301 1.49326C49.3029 1.74821 49.3393 2.00316 49.3757 2.22168C49.4485 2.58589 49.3029 2.84084 49.0116 2.91368C48.7203 2.98652 48.4654 2.80442 48.3926 2.44021C48.3562 2.22168 48.3197 2.00316 48.2469 1.78463C48.2469 1.78463 48.2469 1.74821 48.2105 1.71179C47.7007 1.85747 47.1545 2.00316 46.6084 2.14884C46.6812 2.44021 46.7904 2.65873 46.8632 2.91368C46.9725 3.24147 46.8268 3.53284 46.5355 3.60568C46.2442 3.67852 46.0257 3.53284 45.9165 3.20505C45.8437 2.9501 45.7709 2.73158 45.6616 2.47663C45.1518 2.65873 44.6421 2.87726 44.0959 3.05936C44.2051 3.31431 44.3144 3.53284 44.3872 3.75136C44.5328 4.07915 44.4236 4.37052 44.1687 4.47978C43.8774 4.58905 43.6225 4.47978 43.4769 4.152C43.3676 3.93347 43.2948 3.71494 43.1856 3.49642C43.1856 3.49642 43.1856 3.49642 43.1491 3.46C42.7486 3.67852 42.3117 3.89705 41.8747 4.11557C41.9475 4.22484 41.9839 4.29768 42.0204 4.37052C42.4937 5.17178 42.9671 5.97305 43.404 6.77431C43.6225 7.13852 43.4769 7.53915 43.1491 7.75767C42.8214 7.93978 42.4209 7.83052 42.2024 7.46631C42.166 7.39347 42.1296 7.32062 42.0932 7.24778C41.6198 6.44652 41.1829 5.64526 40.7095 4.88041C40.7095 4.88041 40.6731 4.84399 40.6367 4.80757C40.2361 5.06252 39.8356 5.31747 39.4351 5.60884C39.5807 5.82736 39.7264 6.00947 39.872 6.22799C40.0905 6.51936 40.0541 6.81073 39.7992 6.99283C39.5443 7.17494 39.253 7.1021 39.0709 6.81073C38.9253 6.62862 38.7796 6.4101 38.634 6.19157C38.197 6.55578 37.7965 6.88357 37.3231 7.24778C37.5052 7.46631 37.6872 7.64841 37.8329 7.83052C38.0514 8.08546 38.0514 8.41325 37.8329 8.59536C37.6144 8.77746 37.3231 8.74104 37.1046 8.4861C36.9226 8.30399 36.7769 8.12189 36.5949 7.93978C36.1943 8.34041 35.8302 8.74104 35.4297 9.14167C35.6117 9.28736 35.7938 9.46946 35.9759 9.61515C36.2307 9.87009 36.2672 10.125 36.0851 10.3436C35.903 10.5621 35.5753 10.5621 35.3204 10.3436C35.2112 10.2707 35.1384 10.1979 35.0291 10.0886C34.9563 10.0158 34.8471 9.94294 34.7378 9.83367C34.3737 10.2707 34.046 10.6714 33.6819 11.1084C33.9367 11.2905 34.1552 11.4726 34.3737 11.6547C34.5922 11.8368 34.6286 12.0918 34.4465 12.3103C34.3009 12.5288 34.0096 12.6017 33.7547 12.456C33.609 12.3467 33.427 12.2375 33.2813 12.1282C33.2085 12.0918 33.1357 12.0189 33.0264 11.9461C32.7715 12.3467 32.5166 12.7474 32.2253 13.1844C32.6623 13.4394 33.0993 13.6943 33.5362 13.9492C33.9732 14.2042 34.4465 14.4591 34.8835 14.7505C35.1748 14.8962 35.284 15.1511 35.2112 15.4789C35.1748 15.7703 34.9927 15.9888 34.7014 16.0252C34.5193 16.0617 34.2645 15.9888 34.0824 15.916C33.2085 15.4425 32.371 14.9326 31.4971 14.4227C31.2786 14.8598 31.0601 15.2604 30.8417 15.7339C31.0966 15.8431 31.3514 15.9524 31.5699 16.0617C31.8612 16.2073 32.0069 16.4623 31.8612 16.7537C31.752 17.0086 31.4607 17.1179 31.1694 16.9722C30.9509 16.8629 30.696 16.7537 30.4411 16.6444C30.2591 17.1543 30.0406 17.6642 29.8585 18.2105C30.1134 18.2833 30.3319 18.3562 30.5868 18.4655C30.9145 18.5747 31.0966 18.8297 30.9873 19.121C30.8781 19.4124 30.6232 19.5217 30.2591 19.4124C30.1134 19.2667 29.8949 19.1939 29.6765 19.121C29.6765 19.121 29.64 19.121 29.6036 19.121C29.458 19.6309 29.3123 20.1408 29.1667 20.6871C29.4216 20.76 29.6765 20.7964 29.9313 20.8692C30.2591 20.9421 30.4411 21.1606 30.3683 21.4884C30.3319 21.7798 30.0406 21.9254 29.7129 21.8526C29.5308 21.8162 29.2759 21.7798 28.9846 21.7069C28.9118 22.2532 28.8026 22.7996 28.7297 23.3459C29.021 23.3823 29.2759 23.3823 29.5308 23.4551C29.8585 23.4916 30.077 23.7101 30.0406 24.0014C30.0042 24.2928 29.7493 24.4749 29.4216 24.4385C29.1667 24.4021 28.9482 24.3657 28.6933 24.3657C28.6933 24.3657 28.6569 24.3657 28.6205 24.3657C28.5841 24.8391 28.5841 25.3126 28.5477 25.8225C28.7661 25.8225 28.9846 25.8225 29.1667 25.8225C29.9678 25.8225 30.7688 25.8225 31.5699 25.8225C31.9705 25.8225 32.1889 26.0046 32.2618 26.3324C30.6596 26.3324 29.0939 26.3324 27.4917 26.3324C27.6009 25.0212 27.6373 23.7101 27.8194 22.4353C28.2928 19.5581 29.1667 16.8265 30.5504 14.277C33.8639 8.08546 38.816 3.82421 45.4067 1.49326C47.7371 0.619157 50.1768 0.182105 52.6529 0.072842C52.7257 0.072842 52.8349 0.036421 52.9077 0.036421C53.636 8.14073e-09 54.4007 0 55.1653 0Z" fill="url(#paint0_linear_134_4110)"/>
<path d="M33.8275 26.3325C33.7911 24.9121 34.1916 23.6009 34.9199 22.399C36.0851 20.5415 37.76 19.3761 39.9448 18.939C40.0176 18.939 40.1269 18.9026 40.1633 18.9026C40.1269 18.5748 40.0176 18.2834 40.054 17.9921C40.1633 17.118 41.11 16.7173 41.8747 17.1544C42.4573 17.5186 43.0035 17.8828 43.5861 18.247C46.8268 20.3594 50.0675 22.4719 53.2718 24.5843C53.3447 24.6207 53.4175 24.6571 53.5267 24.73C53.5267 24.5843 53.5632 24.5114 53.5632 24.4022C53.5996 19.9224 53.6724 15.4426 53.7088 10.9628C53.7452 9.17819 53.7452 7.39356 53.7816 5.60893C53.7816 5.53609 53.7452 5.42682 53.7816 5.3904C53.8545 5.28114 53.9637 5.17188 54.0365 5.17188C54.1458 5.17188 54.255 5.28114 54.3278 5.3904C54.3642 5.42682 54.3278 5.53609 54.3278 5.60893C54.3642 11.9098 54.4371 18.2106 54.4735 24.5114C54.4735 24.5843 54.4735 24.6571 54.4735 24.8028C54.6191 24.73 54.6919 24.6935 54.8012 24.6207C60.0446 21.5249 65.288 18.4291 70.5679 15.3333C70.8592 15.1512 71.1505 15.042 71.5146 15.1148C72.0244 15.2241 72.3885 15.5883 72.4977 16.0618C72.607 16.5717 72.3885 17.0451 71.9151 17.3365C71.0412 17.8464 70.1673 18.3563 69.2934 18.8662C69.2206 18.9026 69.1114 18.9754 69.0021 19.0483C69.075 19.0847 69.1114 19.1211 69.1842 19.1211C72.1336 20.1773 73.8814 22.2533 74.3548 25.3491C74.3912 25.6405 74.3912 25.9683 74.4276 26.2961C74.0999 26.2961 73.7722 26.2961 73.4445 26.2961C73.4081 25.9319 73.3717 25.5676 73.3352 25.2399C72.9347 22.5083 70.5679 20.1773 67.8733 19.8495C67.7641 19.8495 67.6549 19.8495 67.5456 19.9224C65.3609 21.1971 63.1761 22.4719 60.9913 23.783C60.9185 23.8194 60.8093 23.8923 60.8093 23.9651C60.518 24.73 60.3359 25.4948 60.3723 26.3325C60.0082 26.3325 59.6805 26.3325 59.3164 26.3325C59.3892 25.7862 59.4256 25.2399 59.4984 24.6571C59.1707 24.8392 58.843 25.0577 58.5153 25.2399C57.8963 25.6041 57.3137 25.9683 56.6946 26.3325C56.112 26.3325 55.5294 26.3325 54.9468 26.3325C54.874 25.859 54.4735 25.4948 54.0001 25.4948C53.5267 25.4948 53.0898 25.8226 53.017 26.3325C52.5072 26.3325 51.9974 26.3325 51.4876 26.3325C50.5409 25.7133 49.5942 25.0577 48.6474 24.4386C48.7203 25.0942 48.7567 25.7133 48.8295 26.3325C48.5018 26.3325 48.1741 26.3325 47.8464 26.3325C47.8099 25.422 47.6643 24.5114 47.2638 23.6737C47.1909 23.5645 47.1181 23.4552 47.0089 23.3824C45.2611 22.2169 43.4768 21.0514 41.6926 19.9224C41.547 19.8495 41.4013 19.7767 41.2193 19.7767C39.5807 19.8131 38.1242 20.3594 36.9226 21.4521C35.5025 22.7632 34.7742 24.3657 34.7742 26.2961C34.4829 26.3325 34.1552 26.3325 33.8275 26.3325Z" fill="url(#paint1_linear_134_4110)"/>
<path d="M40.0905 26.332C40.0541 25.9678 40.1997 25.6764 40.4546 25.4579C40.5639 25.3486 40.6003 25.2393 40.6003 25.0572C40.6003 23.7097 40.6003 22.3621 40.6003 21.0145C40.6003 20.4318 41.1465 20.104 41.6198 20.3589C41.9111 20.541 41.984 20.796 41.984 21.1238C41.984 22.3985 41.984 23.7097 41.984 24.9844C41.984 25.2029 42.0204 25.3486 42.2024 25.4943C42.4573 25.7128 42.5301 26.0042 42.5301 26.332C41.7655 26.332 40.928 26.332 40.0905 26.332Z" fill="url(#paint2_linear_134_4110)"/>
<path d="M65.6886 26.3326C65.6522 25.6406 66.2348 25.0943 66.9631 25.0943C67.0723 25.0943 67.218 25.0579 67.2908 24.985C68.2375 24.0745 69.1842 23.1276 70.131 22.1806C70.2402 22.0713 70.3859 21.9621 70.5679 21.8892C70.8592 21.78 71.1869 21.9257 71.3326 22.1806C71.4782 22.4356 71.4782 22.7633 71.2598 22.9819C71.1869 23.0547 71.1505 23.1276 71.0777 23.164C70.131 24.0745 69.2207 25.0215 68.2739 25.932C68.1647 26.0412 68.0919 26.1505 68.1647 26.3326C67.3272 26.3326 66.5261 26.3326 65.6886 26.3326Z" fill="url(#paint3_linear_134_4110)"/>
<path d="M100.598 41.1207L104.752 46.388L104.898 46.5731H105.134H108H109.005L108.381 45.7853L102.67 38.5732L107.947 31.9041L108.57 31.1165H107.566H104.808H104.571L104.425 31.3032L100.682 36.0905L96.9388 31.3032L96.7929 31.1165H96.556H93.6026H92.5943L93.2224 31.9053L98.5841 38.6386L92.8966 45.7844L92.2689 46.5731H93.2769H96.1216H96.3594L96.5053 46.3853L100.598 41.1207Z" stroke="url(#paint4_linear_134_4110)" stroke-width="0.972"/>
<path d="M18.7626 46.8484H16.6107L12.6696 34.6866C12.4036 33.8403 12.2585 33.2117 11.9926 31.9061C11.7024 33.2359 11.5815 33.8162 11.3639 34.4448L7.42282 46.8484H5.34346L0 30.7213H1.76504L5.63361 42.7381C5.89957 43.5601 6.06882 44.2613 6.40732 45.9054C6.69746 44.4789 6.81835 43.9228 7.15685 42.8831L10.9771 30.7213H13.0322L16.9734 42.9798C17.3844 44.2371 17.4569 44.5756 17.6987 45.9054C17.9405 44.5514 18.0856 43.9712 18.3515 43.1007L22.2685 30.7213H24.0335L18.7626 46.8484Z" fill="url(#paint5_linear_134_4110)"/>
<path d="M36.3332 41.8676H27.5322L25.2594 46.8484H23.4702L30.9172 30.7213H32.9724L40.4677 46.8484H38.5818L36.3332 41.8676ZM35.6562 40.4169L32.6581 33.8162C32.2228 32.8732 32.0778 32.438 31.9085 31.7126C31.6909 32.5105 31.4975 32.9941 31.1348 33.8162L28.1608 40.4169H35.6562Z" fill="url(#paint6_linear_134_4110)"/>
<path d="M46.8688 46.8484H45.1763V32.2204H38.9382V30.7213H53.0344V32.2204H46.8688V46.8484Z" fill="url(#paint7_linear_134_4110)"/>
<path d="M68.4622 40.828H70.203C69.1392 45.1559 66.5762 47.1869 62.2241 47.1869C57.0982 47.1869 53.7858 43.8744 53.7858 38.797C53.7858 36.6451 54.4386 34.6624 55.6233 33.1633C57.0982 31.3258 59.3952 30.3828 62.3933 30.3828C65.0772 30.3828 67.2291 31.2532 68.6798 32.9457C69.5018 33.8887 69.8403 34.7591 70.0338 36.234H68.3896C67.761 33.3326 65.73 31.8093 62.4659 31.8093C59.7095 31.8093 57.606 32.8248 56.4696 34.735C55.7926 35.8713 55.4299 37.2737 55.4299 38.7728C55.4299 43.0282 58.0654 45.7604 62.1516 45.7604C64.4969 45.7604 66.407 44.8658 67.495 43.2458C67.9786 42.5446 68.2204 41.9643 68.4622 40.828Z" fill="url(#paint8_linear_134_4110)"/>
<path d="M73.282 46.8484V30.7213H74.9503V37.4913H85.6856V30.7213H87.3539V46.8484H85.6856V38.942H74.9503V46.8484H73.282Z" fill="url(#paint9_linear_134_4110)"/>
<defs>
<linearGradient id="paint0_linear_134_4110" x1="27.4784" y1="15.7123" x2="80.0712" y2="15.7123" gradientUnits="userSpaceOnUse">
<stop stop-color="#3BC7C0"/>
<stop offset="1" stop-color="#A6FFFB"/>
</linearGradient>
<linearGradient id="paint1_linear_134_4110" x1="33.815" y1="17.7982" x2="74.0926" y2="17.7982" gradientUnits="userSpaceOnUse">
<stop stop-color="#3BC7C0"/>
<stop offset="1" stop-color="#A6FFFB"/>
</linearGradient>
<linearGradient id="paint2_linear_134_4110" x1="40.0843" y1="23.8877" x2="42.51" y2="23.8877" gradientUnits="userSpaceOnUse">
<stop stop-color="#3BC7C0"/>
<stop offset="1" stop-color="#A6FFFB"/>
</linearGradient>
<linearGradient id="paint3_linear_134_4110" x1="65.6856" y1="24.5258" x2="71.3867" y2="24.5258" gradientUnits="userSpaceOnUse">
<stop stop-color="#3BC7C0"/>
<stop offset="1" stop-color="#A6FFFB"/>
</linearGradient>
<linearGradient id="paint4_linear_134_4110" x1="93.2732" y1="40.2453" x2="107.879" y2="40.2453" gradientUnits="userSpaceOnUse">
<stop stop-color="#A6FFFB"/>
<stop offset="1" stop-color="#3BC7C0"/>
</linearGradient>
<linearGradient id="paint5_linear_134_4110" x1="-0.0218385" y1="40.4097" x2="86.6333" y2="40.4097" gradientUnits="userSpaceOnUse">
<stop stop-color="#3BC7C0"/>
<stop offset="1" stop-color="#A6FFFB"/>
</linearGradient>
<linearGradient id="paint6_linear_134_4110" x1="-0.0218385" y1="40.4097" x2="86.6333" y2="40.4097" gradientUnits="userSpaceOnUse">
<stop stop-color="#3BC7C0"/>
<stop offset="1" stop-color="#A6FFFB"/>
</linearGradient>
<linearGradient id="paint7_linear_134_4110" x1="-0.0218385" y1="40.4097" x2="86.6333" y2="40.4097" gradientUnits="userSpaceOnUse">
<stop stop-color="#3BC7C0"/>
<stop offset="1" stop-color="#A6FFFB"/>
</linearGradient>
<linearGradient id="paint8_linear_134_4110" x1="-0.0218385" y1="40.4097" x2="86.6333" y2="40.4097" gradientUnits="userSpaceOnUse">
<stop stop-color="#3BC7C0"/>
<stop offset="1" stop-color="#A6FFFB"/>
</linearGradient>
<linearGradient id="paint9_linear_134_4110" x1="-0.0218385" y1="40.4097" x2="86.6333" y2="40.4097" gradientUnits="userSpaceOnUse">
<stop stop-color="#3BC7C0"/>
<stop offset="1" stop-color="#A6FFFB"/>
</linearGradient>
</defs>
</svg>
