<svg width="32" height="25" viewBox="0 0 32 25" fill="none" xmlns="http://www.w3.org/2000/svg">
<rect x="0.5" y="0.686523" width="31" height="23" rx="3.5" fill="#F2F4F7"/>
<rect x="0.5" y="0.686523" width="31" height="23" rx="3.5" stroke="#F2F4F7"/>
<path fill-rule="evenodd" clip-rule="evenodd" d="M13.6687 18.3223L13.8894 16.8732L13.3977 16.8613H11.0498L12.6815 6.16772C12.6866 6.13534 12.7031 6.10528 12.7271 6.0839C12.7512 6.06251 12.7819 6.05078 12.8141 6.05078H16.773C18.0875 6.05078 18.9945 6.33342 19.468 6.89136C19.69 7.1531 19.8314 7.42669 19.8998 7.72766C19.9716 8.04353 19.9728 8.42087 19.9028 8.88118L19.8977 8.91466V9.20964L20.1197 9.33965C20.3067 9.44217 20.4553 9.55948 20.5692 9.69377C20.7591 9.91763 20.8819 10.2021 20.9338 10.5392C20.9875 10.886 20.9698 11.2988 20.8819 11.7661C20.7806 12.3035 20.6169 12.7716 20.3957 13.1546C20.1923 13.5075 19.9332 13.8002 19.6254 14.027C19.3317 14.2426 18.9827 14.4062 18.588 14.5109C18.2056 14.6138 17.7696 14.6658 17.2913 14.6658H16.9832C16.763 14.6658 16.549 14.7477 16.381 14.8947C16.2125 15.0448 16.1012 15.2498 16.067 15.4741L16.0437 15.6046L15.6537 18.1588L15.6361 18.2525C15.6314 18.2822 15.6233 18.297 15.6115 18.307C15.601 18.3162 15.5858 18.3223 15.5711 18.3223H13.6687Z" fill="#28356A"/>
<path fill-rule="evenodd" clip-rule="evenodd" d="M20.3303 8.94922C20.3186 9.0273 20.305 9.10709 20.2898 9.18909C19.7678 11.9597 17.9815 12.9169 15.7002 12.9169H14.5387C14.2597 12.9169 14.0245 13.1262 13.9811 13.4107L13.218 18.4139C13.1898 18.6008 13.329 18.769 13.5113 18.769H15.5715C15.8154 18.769 16.0226 18.5859 16.0611 18.3372L16.0813 18.229L16.4692 15.6848L16.4941 15.5453C16.5321 15.2958 16.7398 15.1125 16.9837 15.1125H17.2918C19.2878 15.1125 20.8503 14.275 21.307 11.8511C21.4977 10.8386 21.399 9.99313 20.8942 9.39853C20.7415 9.21927 20.5519 9.07044 20.3303 8.94922Z" fill="#298FC2"/>
<path fill-rule="evenodd" clip-rule="evenodd" d="M19.7838 8.72395C19.704 8.69988 19.6217 8.67813 19.5373 8.65846C19.4524 8.63927 19.3655 8.62229 19.276 8.60738C18.9628 8.55508 18.6196 8.53027 18.252 8.53027H15.149C15.0725 8.53027 14.9999 8.54811 14.935 8.58037C14.7919 8.65149 14.6856 8.79153 14.6598 8.96296L13.9996 13.2845L13.9807 13.4105C14.0241 13.126 14.2592 12.9167 14.5383 12.9167H15.6998C17.9811 12.9167 19.7673 11.9591 20.2894 9.1889C20.305 9.10691 20.3181 9.02712 20.3298 8.94903C20.1978 8.87657 20.0547 8.81462 19.9007 8.76183C19.8626 8.74876 19.8234 8.73617 19.7838 8.72395Z" fill="#22284F"/>
<path fill-rule="evenodd" clip-rule="evenodd" d="M14.6601 8.96313C14.6858 8.7917 14.7921 8.65166 14.9353 8.58103C15.0007 8.54865 15.0728 8.53081 15.1493 8.53081H18.2523C18.6199 8.53081 18.9631 8.55574 19.2763 8.60804C19.3658 8.62282 19.4527 8.63993 19.5375 8.65911C19.622 8.67867 19.7042 8.70054 19.784 8.72449C19.8236 8.73671 19.8629 8.74942 19.9013 8.762C20.0554 8.81479 20.1985 8.87723 20.3306 8.9492C20.4859 7.92534 20.3293 7.22821 19.7937 6.59696C19.2032 5.90191 18.1375 5.60449 16.7738 5.60449H12.8147C12.5362 5.60449 12.2985 5.81381 12.2555 6.09877L10.6065 16.9024C10.574 17.1161 10.7335 17.3089 10.942 17.3089H13.3862L14.6601 8.96313Z" fill="#28356A"/>
</svg>
