<svg width="21" height="20" viewBox="0 0 21 20" fill="none" xmlns="http://www.w3.org/2000/svg">
<path d="M5.26167 6.67178C5.35689 5.91867 6.33564 4.89512 7.1124 5.00869L7.11116 5.00745C7.86709 5.1511 8.46549 6.45217 8.80292 7.03721C9.042 7.46168 8.88675 7.89175 8.66375 8.07323C8.36292 8.31569 7.89249 8.65025 7.99119 8.98617C8.16667 9.58333 10.25 11.6667 11.2747 12.2589C11.6625 12.4831 11.9438 11.8918 12.1839 11.5889C12.3584 11.3559 12.7888 11.2167 13.2123 11.4467C13.8448 11.815 14.4407 12.2431 14.9917 12.725C15.2668 12.955 15.3314 13.2949 15.1408 13.6542C14.8049 14.2869 13.8336 15.1213 13.1285 14.9517C11.897 14.6557 6.91667 12.725 5.31694 7.13168C5.22698 6.86707 5.24963 6.76703 5.26167 6.67178Z" fill="#061513"/>
<path fill-rule="evenodd" clip-rule="evenodd" d="M10.2499 19.1663C9.23025 19.1663 8.66608 19.0569 7.74992 18.7497L5.99528 19.627C4.8871 20.1811 3.58325 19.3753 3.58325 18.1363V16.2497C1.78871 14.5763 1.08325 12.6469 1.08325 9.99967C1.08325 4.93707 5.18731 0.833008 10.2499 0.833008C15.3125 0.833008 19.4166 4.93707 19.4166 9.99967C19.4166 15.0623 15.3125 19.1663 10.2499 19.1663ZM5.24992 15.5249L4.71988 15.0307C3.32564 13.7307 2.74992 12.2773 2.74992 9.99967C2.74992 5.85754 6.10778 2.49967 10.2499 2.49967C14.3921 2.49967 17.7499 5.85754 17.7499 9.99967C17.7499 14.1418 14.3921 17.4997 10.2499 17.4997C9.4285 17.4997 9.04325 17.4255 8.27988 17.1695L7.62364 16.9494L5.24992 18.1363V15.5249Z" fill="#061513"/>
</svg>
