<svg width="24" height="25" viewBox="0 0 24 25" fill="none" xmlns="http://www.w3.org/2000/svg">
<g clip-path="url(#clip0_134_4389)">
<path d="M12 2.34746C15.2063 2.34746 15.5859 2.36152 16.8469 2.41777C18.0188 2.46934 18.6516 2.66621 19.0734 2.83027C19.6313 3.0459 20.0344 3.3084 20.4516 3.72559C20.8734 4.14746 21.1313 4.5459 21.3469 5.10371C21.5109 5.52559 21.7078 6.16309 21.7594 7.33027C21.8156 8.5959 21.8297 8.97559 21.8297 12.1771C21.8297 15.3834 21.8156 15.7631 21.7594 17.024C21.7078 18.1959 21.5109 18.8287 21.3469 19.2506C21.1313 19.8084 20.8687 20.2115 20.4516 20.6287C20.0297 21.0506 19.6313 21.3084 19.0734 21.524C18.6516 21.6881 18.0141 21.885 16.8469 21.9365C15.5813 21.9928 15.2016 22.0068 12 22.0068C8.79375 22.0068 8.41406 21.9928 7.15313 21.9365C5.98125 21.885 5.34844 21.6881 4.92656 21.524C4.36875 21.3084 3.96563 21.0459 3.54844 20.6287C3.12656 20.2068 2.86875 19.8084 2.65313 19.2506C2.48906 18.8287 2.29219 18.1912 2.24063 17.024C2.18438 15.7584 2.17031 15.3787 2.17031 12.1771C2.17031 8.9709 2.18438 8.59121 2.24063 7.33027C2.29219 6.1584 2.48906 5.52559 2.65313 5.10371C2.86875 4.5459 3.13125 4.14277 3.54844 3.72559C3.97031 3.30371 4.36875 3.0459 4.92656 2.83027C5.34844 2.66621 5.98594 2.46934 7.15313 2.41777C8.41406 2.36152 8.79375 2.34746 12 2.34746ZM12 0.186523C8.74219 0.186523 8.33438 0.200586 7.05469 0.256836C5.77969 0.313086 4.90313 0.519336 4.14375 0.814648C3.35156 1.12402 2.68125 1.53184 2.01563 2.20215C1.34531 2.86777 0.9375 3.53809 0.628125 4.32559C0.332812 5.08965 0.126563 5.96152 0.0703125 7.23652C0.0140625 8.5209 0 8.92871 0 12.1865C0 15.4443 0.0140625 15.8521 0.0703125 17.1318C0.126563 18.4068 0.332812 19.2834 0.628125 20.0428C0.9375 20.835 1.34531 21.5053 2.01563 22.1709C2.68125 22.8365 3.35156 23.249 4.13906 23.5537C4.90313 23.849 5.775 24.0553 7.05 24.1115C8.32969 24.1678 8.7375 24.1818 11.9953 24.1818C15.2531 24.1818 15.6609 24.1678 16.9406 24.1115C18.2156 24.0553 19.0922 23.849 19.8516 23.5537C20.6391 23.249 21.3094 22.8365 21.975 22.1709C22.6406 21.5053 23.0531 20.835 23.3578 20.0475C23.6531 19.2834 23.8594 18.4115 23.9156 17.1365C23.9719 15.8568 23.9859 15.449 23.9859 12.1912C23.9859 8.9334 23.9719 8.52559 23.9156 7.2459C23.8594 5.9709 23.6531 5.09434 23.3578 4.33496C23.0625 3.53809 22.6547 2.86777 21.9844 2.20215C21.3188 1.53652 20.6484 1.12402 19.8609 0.819336C19.0969 0.524023 18.225 0.317773 16.95 0.261523C15.6656 0.200586 15.2578 0.186523 12 0.186523Z" fill="#061513"/>
<path d="M12 6.02246C8.59688 6.02246 5.83594 8.7834 5.83594 12.1865C5.83594 15.5896 8.59688 18.3506 12 18.3506C15.4031 18.3506 18.1641 15.5896 18.1641 12.1865C18.1641 8.7834 15.4031 6.02246 12 6.02246ZM12 16.185C9.79219 16.185 8.00156 14.3943 8.00156 12.1865C8.00156 9.97871 9.79219 8.18809 12 8.18809C14.2078 8.18809 15.9984 9.97871 15.9984 12.1865C15.9984 14.3943 14.2078 16.185 12 16.185Z" fill="#061513"/>
<path d="M19.8469 5.77891C19.8469 6.57578 19.2 7.21797 18.4078 7.21797C17.6109 7.21797 16.9688 6.5711 16.9688 5.77891C16.9688 4.98203 17.6156 4.33984 18.4078 4.33984C19.2 4.33984 19.8469 4.98672 19.8469 5.77891Z" fill="#061513"/>
</g>
<defs>
<clipPath id="clip0_134_4389">
<rect width="24" height="24" fill="white" transform="translate(0 0.186523)"/>
</clipPath>
</defs>
</svg>
