<svg width="25" height="25" viewBox="0 0 25 25" fill="none" xmlns="http://www.w3.org/2000/svg">
<path d="M15.7502 15.4365H5.25V4.93652H15.7502V15.4365Z" stroke="#61CCAC" stroke-width="1.5" stroke-linecap="round" stroke-linejoin="round"/>
<path d="M9.75 17.6865C9.75 18.653 8.9665 19.4365 8 19.4365C7.0335 19.4365 6.25 18.653 6.25 17.6865C6.25 16.72 7.0335 15.9365 8 15.9365C8.9665 15.9365 9.75 16.72 9.75 17.6865Z" stroke="#61CCAC" stroke-width="1.5" stroke-linecap="round" stroke-linejoin="round"/>
<path d="M18.75 17.6865C18.75 18.653 17.9665 19.4365 17 19.4365C16.0335 19.4365 15.25 18.653 15.25 17.6865C15.25 16.72 16.0335 15.9365 17 15.9365C17.9665 15.9365 18.75 16.72 18.75 17.6865Z" stroke="#61CCAC" stroke-width="1.5" stroke-linecap="round" stroke-linejoin="round"/>
<path d="M19.7502 15.4365H15.75V8.93652H16.7502C18.4071 8.93652 19.7502 10.2796 19.7502 11.9365V15.4365Z" stroke="#61CCAC" stroke-width="1.5" stroke-linecap="round" stroke-linejoin="round"/>
</svg>
