<svg width="48" height="13" viewBox="0 0 48 13" fill="none" xmlns="http://www.w3.org/2000/svg">
<g clip-path="url(#clip0_112_3942)">
<path d="M42.7429 9.87926C42.0497 9.87926 41.4857 10.4432 41.4857 11.1481C41.4857 11.8531 42.0497 12.417 42.7429 12.417C43.436 12.417 44 11.8531 44 11.1481C44 10.4432 43.436 9.87926 42.7429 9.87926ZM38.619 8.90409C38.619 7.95242 37.8083 7.17699 36.8096 7.17699C35.8109 7.17699 35.0003 7.95242 35.0003 8.90409C35.0003 9.85576 35.8109 10.6312 36.8096 10.6312C37.8083 10.6312 38.619 9.85576 38.619 8.90409ZM38.619 5.54388H40.6163V12.2643H38.619V11.8296C38.055 12.2173 37.3736 12.4405 36.6451 12.4405C34.7065 12.4405 33.1322 10.8544 33.1322 8.89234C33.1322 6.93026 34.7065 5.34414 36.6451 5.34414C37.3736 5.34414 38.055 5.56737 38.619 5.95509V5.52038V5.54388ZM22.6521 6.42505V5.54388H20.6077V12.2643H22.6521V9.12732C22.6521 8.06991 23.7917 7.49421 24.5789 7.49421H24.6024V5.54388C23.7917 5.54388 23.0515 5.89635 22.6521 6.42505ZM17.5648 8.91584C17.5648 7.96417 16.7541 7.18874 15.7554 7.18874C14.7567 7.18874 13.9461 7.96417 13.9461 8.91584C13.9461 9.86751 14.7567 10.6429 15.7554 10.6429C16.7541 10.6429 17.5648 9.86751 17.5648 8.91584ZM17.5648 5.55563H19.5621V12.2761H17.5648V11.8413C17.0008 12.2291 16.3194 12.4523 15.5909 12.4523C13.6523 12.4523 12.078 10.8662 12.078 8.90409C12.078 6.94201 13.6523 5.35589 15.5909 5.35589C16.3194 5.35589 17.0008 5.57912 17.5648 5.96684V5.53213V5.55563ZM29.5722 5.37939C28.7733 5.37939 28.0214 5.62612 27.5162 6.31931V5.56737H25.5306V12.2878H27.5397V8.75135C27.5397 7.72919 28.2211 7.22398 29.0318 7.22398C29.9129 7.22398 30.4182 7.75269 30.4182 8.72785V12.2761H32.4155V7.99942C32.4155 6.4368 31.1818 5.36764 29.5722 5.36764V5.37939ZM9.17597 12.2643H11.2673V2.53613H9.17597V12.2643ZM0 12.2643H2.20881V2.53613H0V12.2643ZM7.73084 2.53613C7.73084 4.6392 6.92016 6.60129 5.46328 8.05816L8.51802 12.2643H5.79226L2.46729 7.69394L3.32497 7.04775C4.7466 5.97859 5.55728 4.33373 5.55728 2.53613H7.71909L7.73084 2.53613Z" fill="white"/>
</g>
<defs>
<clipPath id="clip0_112_3942">
<rect width="48" height="12.266" fill="white" transform="translate(0 0.186523)"/>
</clipPath>
</defs>
</svg>
